<svg width="639" height="140" viewBox="0 0 639 140" fill="none" xmlns="http://www.w3.org/2000/svg">
<g clip-path="url(#clip0)">
<rect width="639" height="140" fill="white"/>
<path d="M32.6464 60.3536C32.8417 60.5488 33.1583 60.5488 33.3536 60.3536L36.5355 57.1716C36.7308 56.9763 36.7308 56.6597 36.5355 56.4645C36.3403 56.2692 36.0237 56.2692 35.8284 56.4645L33 59.2929L30.1716 56.4645C29.9763 56.2692 29.6597 56.2692 29.4645 56.4645C29.2692 56.6597 29.2692 56.9763 29.4645 57.1716L32.6464 60.3536ZM32.5 36L32.5 60L33.5 60L33.5 36L32.5 36Z" fill="black"/>
<path d="M287.646 60.3536C287.842 60.5488 288.158 60.5488 288.354 60.3536L291.536 57.1716C291.731 56.9763 291.731 56.6597 291.536 56.4645C291.34 56.2692 291.024 56.2692 290.828 56.4645L288 59.2929L285.172 56.4645C284.976 56.2692 284.66 56.2692 284.464 56.4645C284.269 56.6597 284.269 56.9763 284.464 57.1716L287.646 60.3536ZM287.5 36L287.5 60L288.5 60L288.5 36L287.5 36Z" fill="black"/>
<line x1="33" y1="36.3889" x2="288" y2="36.3889" stroke="black"/>
<path d="M354.354 87.6464C354.158 87.4512 353.842 87.4512 353.646 87.6464L350.464 90.8284C350.269 91.0237 350.269 91.3403 350.464 91.5355C350.66 91.7308 350.976 91.7308 351.172 91.5355L354 88.7071L356.828 91.5355C357.024 91.7308 357.34 91.7308 357.536 91.5355C357.731 91.3403 357.731 91.0237 357.536 90.8284L354.354 87.6464ZM354.5 112L354.5 88L353.5 88L353.5 112L354.5 112Z" fill="black"/>
<path d="M472.354 87.6464C472.158 87.4512 471.842 87.4512 471.646 87.6464L468.464 90.8284C468.269 91.0237 468.269 91.3403 468.464 91.5355C468.66 91.7308 468.976 91.7308 469.172 91.5355L472 88.7071L474.828 91.5355C475.024 91.7308 475.34 91.7308 475.536 91.5355C475.731 91.3403 475.731 91.0237 475.536 90.8284L472.354 87.6464ZM472.5 112L472.5 88L471.5 88L471.5 112L472.5 112Z" fill="black"/>
<path d="M532.646 57.3536C532.842 57.5488 533.158 57.5488 533.354 57.3536L536.536 54.1716C536.731 53.9763 536.731 53.6597 536.536 53.4645C536.34 53.2692 536.024 53.2692 535.828 53.4645L533 56.2929L530.172 53.4645C529.976 53.2692 529.66 53.2692 529.464 53.4645C529.269 53.6597 529.269 53.9763 529.464 54.1716L532.646 57.3536ZM532.5 33L532.5 57L533.5 57L533.5 33L532.5 33Z" fill="black"/>
<path d="M412.646 57.3536C412.842 57.5488 413.158 57.5488 413.354 57.3536L416.536 54.1716C416.731 53.9763 416.731 53.6597 416.536 53.4645C416.34 53.2692 416.024 53.2692 415.828 53.4645L413 56.2929L410.172 53.4645C409.976 53.2692 409.66 53.2692 409.464 53.4645C409.269 53.6597 409.269 53.9763 409.464 54.1716L412.646 57.3536ZM412.5 33L412.5 57L413.5 57L413.5 33L412.5 33Z" fill="black"/>
<rect x="31" y="63" width="262" height="23" fill="#2E84D2" fill-opacity="0.2"/>
<rect x="293" y="63" width="116" height="23" fill="#FF7474" fill-opacity="0.2"/>
<rect x="418" y="63" width="108" height="23" fill="#0FC37B" fill-opacity="0.2"/>
<rect x="539" y="62" width="69" height="23" fill="#A264FF" fill-opacity="0.2"/>
<path d="M125.102 32V21.9785H128.861C129.627 21.9785 130.24 22.0811 130.7 22.2861C131.165 22.4867 131.527 22.7988 131.787 23.2227C132.051 23.6419 132.184 24.0817 132.184 24.542C132.184 24.9704 132.067 25.3737 131.835 25.752C131.603 26.1302 131.252 26.4355 130.782 26.668C131.388 26.8457 131.853 27.1488 132.177 27.5771C132.505 28.0055 132.669 28.5114 132.669 29.0947C132.669 29.5641 132.569 30.0016 132.368 30.4072C132.172 30.8083 131.928 31.1182 131.637 31.3369C131.345 31.5557 130.978 31.722 130.536 31.8359C130.099 31.9453 129.561 32 128.923 32H125.102ZM126.428 26.1895H128.595C129.183 26.1895 129.604 26.1507 129.859 26.0732C130.197 25.973 130.45 25.8066 130.618 25.5742C130.791 25.3418 130.878 25.0501 130.878 24.6992C130.878 24.3665 130.798 24.0749 130.639 23.8242C130.479 23.569 130.251 23.3958 129.955 23.3047C129.659 23.209 129.151 23.1611 128.431 23.1611H126.428V26.1895ZM126.428 30.8174H128.923C129.351 30.8174 129.652 30.8014 129.825 30.7695C130.131 30.7148 130.386 30.6237 130.591 30.4961C130.796 30.3685 130.965 30.1839 131.097 29.9424C131.229 29.6963 131.295 29.4137 131.295 29.0947C131.295 28.721 131.199 28.3975 131.008 28.124C130.816 27.846 130.55 27.6523 130.208 27.543C129.871 27.429 129.383 27.3721 128.745 27.3721H126.428V30.8174ZM139.074 31.1045C138.618 31.4919 138.179 31.7653 137.755 31.9248C137.336 32.0843 136.884 32.1641 136.401 32.1641C135.604 32.1641 134.991 31.9704 134.562 31.583C134.134 31.1911 133.92 30.6921 133.92 30.0859C133.92 29.7305 134 29.4069 134.159 29.1152C134.323 28.819 134.535 28.582 134.795 28.4043C135.059 28.2266 135.355 28.0921 135.684 28.001C135.925 27.9372 136.29 27.8757 136.777 27.8164C137.771 27.6979 138.502 27.5566 138.972 27.3926C138.976 27.224 138.979 27.1169 138.979 27.0713C138.979 26.57 138.862 26.2168 138.63 26.0117C138.315 25.7337 137.848 25.5947 137.229 25.5947C136.65 25.5947 136.221 25.6973 135.943 25.9023C135.67 26.1029 135.467 26.4606 135.335 26.9756L134.132 26.8115C134.241 26.2965 134.421 25.8818 134.672 25.5674C134.923 25.2484 135.285 25.0046 135.759 24.8359C136.233 24.6628 136.782 24.5762 137.406 24.5762C138.026 24.5762 138.53 24.6491 138.917 24.7949C139.304 24.9408 139.589 25.1253 139.771 25.3486C139.954 25.5674 140.081 25.8454 140.154 26.1826C140.195 26.3923 140.216 26.7705 140.216 27.3174V28.958C140.216 30.1019 140.241 30.8265 140.291 31.1318C140.346 31.4326 140.451 31.722 140.605 32H139.32C139.193 31.7448 139.111 31.4463 139.074 31.1045ZM138.972 28.3564C138.525 28.5387 137.855 28.6937 136.962 28.8213C136.456 28.8942 136.098 28.9762 135.889 29.0674C135.679 29.1585 135.517 29.293 135.403 29.4707C135.289 29.6439 135.232 29.8376 135.232 30.0518C135.232 30.3799 135.355 30.6533 135.602 30.8721C135.852 31.0908 136.217 31.2002 136.695 31.2002C137.169 31.2002 137.591 31.0977 137.96 30.8926C138.329 30.6829 138.6 30.3981 138.773 30.0381C138.906 29.7601 138.972 29.3499 138.972 28.8076V28.3564ZM141.638 29.833L142.854 29.6416C142.923 30.1292 143.112 30.5029 143.422 30.7627C143.736 31.0225 144.174 31.1523 144.734 31.1523C145.299 31.1523 145.719 31.0384 145.992 30.8105C146.266 30.5781 146.402 30.307 146.402 29.9971C146.402 29.7191 146.282 29.5003 146.04 29.3408C145.871 29.2314 145.452 29.0924 144.782 28.9238C143.88 28.696 143.253 28.5 142.902 28.3359C142.556 28.1673 142.292 27.9372 142.109 27.6455C141.932 27.3493 141.843 27.0234 141.843 26.668C141.843 26.3444 141.916 26.0459 142.062 25.7725C142.212 25.4945 142.415 25.2643 142.67 25.082C142.861 24.9408 143.121 24.8223 143.449 24.7266C143.782 24.6263 144.137 24.5762 144.516 24.5762C145.085 24.5762 145.584 24.6582 146.013 24.8223C146.446 24.9863 146.765 25.2096 146.97 25.4922C147.175 25.7702 147.316 26.1439 147.394 26.6133L146.19 26.7773C146.136 26.4036 145.976 26.112 145.712 25.9023C145.452 25.6927 145.083 25.5879 144.604 25.5879C144.039 25.5879 143.636 25.6813 143.395 25.8682C143.153 26.055 143.032 26.2738 143.032 26.5244C143.032 26.6839 143.082 26.8275 143.183 26.9551C143.283 27.0872 143.44 27.1966 143.654 27.2832C143.777 27.3288 144.14 27.4336 144.741 27.5977C145.612 27.8301 146.218 28.0215 146.56 28.1719C146.906 28.3177 147.177 28.5319 147.373 28.8145C147.569 29.097 147.667 29.4479 147.667 29.8672C147.667 30.2773 147.546 30.6647 147.305 31.0293C147.068 31.3893 146.724 31.6696 146.272 31.8701C145.821 32.0661 145.311 32.1641 144.741 32.1641C143.798 32.1641 143.078 31.9681 142.581 31.5762C142.089 31.1842 141.774 30.6032 141.638 29.833ZM154.1 29.6621L155.371 29.8193C155.171 30.5622 154.799 31.1387 154.257 31.5488C153.715 31.959 153.022 32.1641 152.179 32.1641C151.117 32.1641 150.274 31.8382 149.649 31.1865C149.03 30.5303 148.72 29.612 148.72 28.4316C148.72 27.2103 149.034 26.2624 149.663 25.5879C150.292 24.9134 151.108 24.5762 152.11 24.5762C153.081 24.5762 153.874 24.9066 154.489 25.5674C155.104 26.2282 155.412 27.1579 155.412 28.3564C155.412 28.4294 155.41 28.5387 155.405 28.6846H149.991C150.037 29.4821 150.262 30.0928 150.668 30.5166C151.074 30.9404 151.579 31.1523 152.186 31.1523C152.637 31.1523 153.022 31.0339 153.341 30.7969C153.66 30.5599 153.913 30.1816 154.1 29.6621ZM150.06 27.6729H154.113C154.059 27.0622 153.904 26.6042 153.648 26.2988C153.257 25.8249 152.748 25.5879 152.124 25.5879C151.559 25.5879 151.083 25.777 150.695 26.1553C150.312 26.5335 150.101 27.0394 150.06 27.6729ZM167.553 21.9785H168.879V27.7686C168.879 28.7757 168.765 29.5755 168.537 30.168C168.309 30.7604 167.897 31.2435 167.3 31.6172C166.707 31.9863 165.928 32.1709 164.962 32.1709C164.023 32.1709 163.255 32.0091 162.658 31.6855C162.061 31.362 161.635 30.8949 161.38 30.2842C161.125 29.6689 160.997 28.8304 160.997 27.7686V21.9785H162.323V27.7617C162.323 28.6322 162.403 29.2747 162.562 29.6895C162.727 30.0996 163.005 30.4163 163.396 30.6396C163.793 30.863 164.276 30.9746 164.846 30.9746C165.821 30.9746 166.516 30.7536 166.931 30.3115C167.345 29.8695 167.553 29.0195 167.553 27.7617V21.9785ZM171.114 32V21.9785H175.558C176.451 21.9785 177.13 22.0697 177.595 22.252C178.06 22.4297 178.431 22.7464 178.709 23.2021C178.987 23.6579 179.126 24.1615 179.126 24.7129C179.126 25.4238 178.896 26.0231 178.436 26.5107C177.975 26.9984 177.264 27.3083 176.303 27.4404C176.654 27.609 176.92 27.7754 177.103 27.9395C177.49 28.2949 177.857 28.7393 178.203 29.2725L179.946 32H178.278L176.952 29.915C176.565 29.3135 176.246 28.8532 175.995 28.5342C175.744 28.2152 175.519 27.9919 175.318 27.8643C175.122 27.7367 174.922 27.6478 174.717 27.5977C174.566 27.5658 174.32 27.5498 173.979 27.5498H172.44V32H171.114ZM172.44 26.4014H175.291C175.897 26.4014 176.371 26.3398 176.713 26.2168C177.055 26.0892 177.314 25.8887 177.492 25.6152C177.67 25.3372 177.759 25.0365 177.759 24.7129C177.759 24.2389 177.586 23.8493 177.239 23.5439C176.897 23.2386 176.355 23.0859 175.612 23.0859H172.44V26.4014ZM181.156 32V21.9785H182.482V30.8174H187.418V32H181.156Z" fill="black"/>
<path d="M327.449 126V115.979H334.695V117.161H328.775V120.23H334.319V121.406H328.775V124.817H334.928V126H327.449ZM336.603 126V118.74H337.71V119.772C338.243 118.975 339.013 118.576 340.021 118.576C340.458 118.576 340.859 118.656 341.224 118.815C341.593 118.97 341.868 119.175 342.051 119.431C342.233 119.686 342.361 119.989 342.434 120.34C342.479 120.568 342.502 120.966 342.502 121.536V126H341.271V121.584C341.271 121.083 341.224 120.709 341.128 120.463C341.032 120.212 340.861 120.014 340.615 119.868C340.374 119.718 340.089 119.643 339.761 119.643C339.237 119.643 338.783 119.809 338.4 120.142C338.022 120.474 337.833 121.105 337.833 122.035V126H336.603ZM349.105 126V125.084C348.645 125.804 347.968 126.164 347.075 126.164C346.496 126.164 345.963 126.005 345.476 125.686C344.993 125.367 344.617 124.922 344.348 124.353C344.083 123.778 343.951 123.12 343.951 122.377C343.951 121.652 344.072 120.996 344.313 120.408C344.555 119.816 344.917 119.362 345.4 119.048C345.883 118.733 346.424 118.576 347.021 118.576C347.458 118.576 347.848 118.67 348.189 118.856C348.531 119.039 348.809 119.278 349.023 119.574V115.979H350.247V126H349.105ZM345.216 122.377C345.216 123.307 345.412 124.002 345.804 124.462C346.196 124.922 346.658 125.152 347.191 125.152C347.729 125.152 348.185 124.934 348.559 124.496C348.937 124.054 349.126 123.382 349.126 122.479C349.126 121.486 348.935 120.757 348.552 120.292C348.169 119.827 347.697 119.595 347.137 119.595C346.59 119.595 346.132 119.818 345.763 120.265C345.398 120.711 345.216 121.415 345.216 122.377ZM352.188 128.782V118.74H353.31V119.684C353.574 119.314 353.872 119.039 354.205 118.856C354.538 118.67 354.941 118.576 355.415 118.576C356.035 118.576 356.582 118.736 357.056 119.055C357.53 119.374 357.887 119.825 358.129 120.408C358.37 120.987 358.491 121.623 358.491 122.315C358.491 123.058 358.357 123.728 358.088 124.325C357.824 124.918 357.436 125.373 356.926 125.692C356.42 126.007 355.887 126.164 355.326 126.164C354.916 126.164 354.547 126.077 354.219 125.904C353.895 125.731 353.629 125.512 353.419 125.248V128.782H352.188ZM353.303 122.411C353.303 123.345 353.492 124.036 353.87 124.482C354.248 124.929 354.706 125.152 355.244 125.152C355.791 125.152 356.258 124.922 356.646 124.462C357.037 123.997 357.233 123.279 357.233 122.309C357.233 121.383 357.042 120.691 356.659 120.23C356.281 119.77 355.827 119.54 355.299 119.54C354.775 119.54 354.31 119.786 353.904 120.278C353.503 120.766 353.303 121.477 353.303 122.411ZM359.523 122.37C359.523 121.026 359.897 120.03 360.645 119.383C361.269 118.845 362.03 118.576 362.928 118.576C363.926 118.576 364.742 118.904 365.375 119.561C366.008 120.212 366.325 121.115 366.325 122.268C366.325 123.202 366.184 123.938 365.901 124.476C365.623 125.009 365.215 125.424 364.678 125.72C364.145 126.016 363.561 126.164 362.928 126.164C361.911 126.164 361.089 125.838 360.46 125.187C359.836 124.535 359.523 123.596 359.523 122.37ZM360.788 122.37C360.788 123.3 360.991 123.997 361.396 124.462C361.802 124.922 362.312 125.152 362.928 125.152C363.538 125.152 364.047 124.92 364.452 124.455C364.858 123.99 365.061 123.282 365.061 122.329C365.061 121.431 364.855 120.752 364.445 120.292C364.04 119.827 363.534 119.595 362.928 119.595C362.312 119.595 361.802 119.825 361.396 120.285C360.991 120.745 360.788 121.44 360.788 122.37ZM367.781 117.394V115.979H369.012V117.394H367.781ZM367.781 126V118.74H369.012V126H367.781ZM370.892 126V118.74H371.999V119.772C372.532 118.975 373.302 118.576 374.31 118.576C374.747 118.576 375.148 118.656 375.513 118.815C375.882 118.97 376.158 119.175 376.34 119.431C376.522 119.686 376.65 119.989 376.723 120.34C376.768 120.568 376.791 120.966 376.791 121.536V126H375.561V121.584C375.561 121.083 375.513 120.709 375.417 120.463C375.321 120.212 375.15 120.014 374.904 119.868C374.663 119.718 374.378 119.643 374.05 119.643C373.526 119.643 373.072 119.809 372.689 120.142C372.311 120.474 372.122 121.105 372.122 122.035V126H370.892ZM381.371 124.899L381.549 125.986C381.202 126.059 380.893 126.096 380.619 126.096C380.173 126.096 379.826 126.025 379.58 125.884C379.334 125.743 379.161 125.558 379.061 125.33C378.96 125.098 378.91 124.612 378.91 123.874V119.697H378.008V118.74H378.91V116.942L380.134 116.204V118.74H381.371V119.697H380.134V123.942C380.134 124.293 380.154 124.519 380.195 124.619C380.241 124.719 380.312 124.799 380.407 124.858C380.507 124.918 380.649 124.947 380.831 124.947C380.968 124.947 381.148 124.931 381.371 124.899Z" fill="black"/>
<path d="M455.758 124.927C456.373 125.351 456.94 125.66 457.46 125.856L457.07 126.779C456.35 126.52 455.632 126.109 454.917 125.549C454.174 125.964 453.354 126.171 452.456 126.171C451.549 126.171 450.727 125.952 449.988 125.515C449.25 125.077 448.68 124.462 448.279 123.669C447.883 122.876 447.685 121.983 447.685 120.989C447.685 120 447.885 119.1 448.286 118.289C448.687 117.478 449.257 116.86 449.995 116.437C450.738 116.013 451.567 115.801 452.483 115.801C453.409 115.801 454.243 116.022 454.985 116.464C455.728 116.901 456.293 117.517 456.681 118.31C457.073 119.098 457.269 119.989 457.269 120.982C457.269 121.807 457.143 122.55 456.893 123.211C456.642 123.867 456.264 124.439 455.758 124.927ZM452.839 123.231C453.604 123.446 454.236 123.765 454.732 124.188C455.512 123.478 455.901 122.409 455.901 120.982C455.901 120.171 455.762 119.463 455.484 118.856C455.211 118.25 454.808 117.781 454.274 117.448C453.746 117.111 453.151 116.942 452.49 116.942C451.501 116.942 450.681 117.282 450.029 117.961C449.378 118.635 449.052 119.645 449.052 120.989C449.052 122.293 449.373 123.293 450.016 123.99C450.663 124.688 451.488 125.036 452.49 125.036C452.964 125.036 453.411 124.947 453.83 124.77C453.415 124.501 452.978 124.309 452.518 124.195L452.839 123.231ZM463.66 126V124.934C463.095 125.754 462.327 126.164 461.356 126.164C460.928 126.164 460.527 126.082 460.153 125.918C459.784 125.754 459.508 125.549 459.326 125.303C459.148 125.052 459.023 124.747 458.95 124.387C458.9 124.145 458.875 123.762 458.875 123.238V118.74H460.105V122.767C460.105 123.409 460.131 123.842 460.181 124.065C460.258 124.389 460.422 124.644 460.673 124.831C460.924 125.013 461.233 125.104 461.603 125.104C461.972 125.104 462.318 125.011 462.642 124.824C462.965 124.633 463.193 124.375 463.325 124.052C463.462 123.724 463.53 123.25 463.53 122.63V118.74H464.761V126H463.66ZM471.665 123.662L472.937 123.819C472.736 124.562 472.365 125.139 471.822 125.549C471.28 125.959 470.587 126.164 469.744 126.164C468.682 126.164 467.839 125.838 467.215 125.187C466.595 124.53 466.285 123.612 466.285 122.432C466.285 121.21 466.6 120.262 467.229 119.588C467.857 118.913 468.673 118.576 469.676 118.576C470.646 118.576 471.439 118.907 472.055 119.567C472.67 120.228 472.978 121.158 472.978 122.356C472.978 122.429 472.975 122.539 472.971 122.685H467.557C467.602 123.482 467.828 124.093 468.233 124.517C468.639 124.94 469.145 125.152 469.751 125.152C470.202 125.152 470.587 125.034 470.906 124.797C471.225 124.56 471.478 124.182 471.665 123.662ZM467.625 121.673H471.679C471.624 121.062 471.469 120.604 471.214 120.299C470.822 119.825 470.314 119.588 469.689 119.588C469.124 119.588 468.648 119.777 468.261 120.155C467.878 120.534 467.666 121.039 467.625 121.673ZM474.475 126V118.74H475.582V119.841C475.865 119.326 476.124 118.986 476.361 118.822C476.603 118.658 476.867 118.576 477.154 118.576C477.569 118.576 477.991 118.708 478.419 118.973L477.995 120.114C477.694 119.937 477.394 119.848 477.093 119.848C476.824 119.848 476.582 119.93 476.368 120.094C476.154 120.253 476.001 120.477 475.91 120.764C475.773 121.201 475.705 121.68 475.705 122.199V126H474.475ZM479.096 128.796L478.959 127.641C479.228 127.714 479.463 127.75 479.663 127.75C479.937 127.75 480.155 127.704 480.319 127.613C480.483 127.522 480.618 127.395 480.723 127.23C480.8 127.107 480.925 126.802 481.099 126.314C481.121 126.246 481.158 126.146 481.208 126.014L478.453 118.74H479.779L481.29 122.944C481.486 123.478 481.661 124.038 481.816 124.626C481.958 124.061 482.126 123.509 482.322 122.972L483.874 118.74H485.104L482.343 126.123C482.047 126.921 481.816 127.47 481.652 127.771C481.434 128.176 481.183 128.472 480.9 128.659C480.618 128.851 480.281 128.946 479.889 128.946C479.652 128.946 479.387 128.896 479.096 128.796ZM494.34 126H493.109V118.159C492.813 118.442 492.424 118.724 491.94 119.007C491.462 119.289 491.031 119.501 490.648 119.643V118.453C491.337 118.13 491.938 117.738 492.453 117.277C492.968 116.817 493.333 116.37 493.547 115.938H494.34V126Z" fill="black"/>
<path d="M384.316 13V2.97852H385.643V13H384.316ZM387.83 13V5.74023H388.938V6.77246C389.471 5.97493 390.241 5.57617 391.248 5.57617C391.686 5.57617 392.087 5.65592 392.451 5.81543C392.82 5.97038 393.096 6.17546 393.278 6.43066C393.461 6.68587 393.588 6.98893 393.661 7.33984C393.707 7.56771 393.729 7.96647 393.729 8.53613V13H392.499V8.58398C392.499 8.08268 392.451 7.70898 392.355 7.46289C392.26 7.21224 392.089 7.014 391.843 6.86816C391.601 6.71777 391.316 6.64258 390.988 6.64258C390.464 6.64258 390.011 6.80892 389.628 7.1416C389.25 7.47428 389.061 8.10547 389.061 9.03516V13H387.83ZM400.333 13V12.084C399.873 12.804 399.196 13.1641 398.303 13.1641C397.724 13.1641 397.191 13.0046 396.703 12.6855C396.22 12.3665 395.844 11.9222 395.575 11.3525C395.311 10.7783 395.179 10.1198 395.179 9.37695C395.179 8.65234 395.299 7.99609 395.541 7.4082C395.783 6.81576 396.145 6.3623 396.628 6.04785C397.111 5.7334 397.651 5.57617 398.248 5.57617C398.686 5.57617 399.075 5.6696 399.417 5.85645C399.759 6.03874 400.037 6.27799 400.251 6.57422V2.97852H401.475V13H400.333ZM396.443 9.37695C396.443 10.3066 396.639 11.0016 397.031 11.4619C397.423 11.9222 397.886 12.1523 398.419 12.1523C398.957 12.1523 399.412 11.9336 399.786 11.4961C400.164 11.054 400.354 10.3818 400.354 9.47949C400.354 8.486 400.162 7.75684 399.779 7.29199C399.396 6.82715 398.925 6.59473 398.364 6.59473C397.817 6.59473 397.359 6.81803 396.99 7.26465C396.626 7.71126 396.443 8.41536 396.443 9.37695ZM403.423 4.39355V2.97852H404.653V4.39355H403.423ZM403.423 13V5.74023H404.653V13H403.423ZM411.271 10.3408L412.48 10.498C412.348 11.332 412.009 11.986 411.462 12.46C410.92 12.9294 410.252 13.1641 409.459 13.1641C408.465 13.1641 407.666 12.8405 407.06 12.1934C406.458 11.5417 406.157 10.6097 406.157 9.39746C406.157 8.61361 406.287 7.92773 406.547 7.33984C406.807 6.75195 407.201 6.31217 407.729 6.02051C408.263 5.72428 408.841 5.57617 409.466 5.57617C410.254 5.57617 410.899 5.77669 411.4 6.17773C411.902 6.57422 412.223 7.13932 412.364 7.87305L411.168 8.05762C411.054 7.56999 410.851 7.20312 410.56 6.95703C410.272 6.71094 409.924 6.58789 409.514 6.58789C408.894 6.58789 408.39 6.8112 408.003 7.25781C407.616 7.69987 407.422 8.40169 407.422 9.36328C407.422 10.3385 407.609 11.0472 407.982 11.4893C408.356 11.9313 408.844 12.1523 409.445 12.1523C409.928 12.1523 410.332 12.0042 410.655 11.708C410.979 11.4118 411.184 10.9561 411.271 10.3408ZM418.271 12.1045C417.815 12.4919 417.375 12.7653 416.951 12.9248C416.532 13.0843 416.081 13.1641 415.598 13.1641C414.8 13.1641 414.187 12.9704 413.759 12.583C413.33 12.1911 413.116 11.6921 413.116 11.0859C413.116 10.7305 413.196 10.4069 413.355 10.1152C413.52 9.81901 413.731 9.58203 413.991 9.4043C414.256 9.22656 414.552 9.09212 414.88 9.00098C415.121 8.93717 415.486 8.87565 415.974 8.81641C416.967 8.69792 417.699 8.55664 418.168 8.39258C418.173 8.22396 418.175 8.11686 418.175 8.07129C418.175 7.56999 418.059 7.2168 417.826 7.01172C417.512 6.73372 417.045 6.59473 416.425 6.59473C415.846 6.59473 415.418 6.69727 415.14 6.90234C414.866 7.10286 414.663 7.46061 414.531 7.97559L413.328 7.81152C413.438 7.29655 413.618 6.88184 413.868 6.56738C414.119 6.24837 414.481 6.00456 414.955 5.83594C415.429 5.66276 415.978 5.57617 416.603 5.57617C417.222 5.57617 417.726 5.64909 418.113 5.79492C418.501 5.94076 418.785 6.12533 418.968 6.34863C419.15 6.56738 419.278 6.84538 419.351 7.18262C419.392 7.39225 419.412 7.77051 419.412 8.31738V9.95801C419.412 11.1019 419.437 11.8265 419.487 12.1318C419.542 12.4326 419.647 12.722 419.802 13H418.517C418.389 12.7448 418.307 12.4463 418.271 12.1045ZM418.168 9.35645C417.721 9.53874 417.051 9.69368 416.158 9.82129C415.652 9.89421 415.295 9.97624 415.085 10.0674C414.875 10.1585 414.714 10.293 414.6 10.4707C414.486 10.6439 414.429 10.8376 414.429 11.0518C414.429 11.3799 414.552 11.6533 414.798 11.8721C415.049 12.0908 415.413 12.2002 415.892 12.2002C416.366 12.2002 416.787 12.0977 417.156 11.8926C417.525 11.6829 417.797 11.3981 417.97 11.0381C418.102 10.7601 418.168 10.3499 418.168 9.80762V9.35645ZM424.013 11.8994L424.19 12.9863C423.844 13.0592 423.534 13.0957 423.261 13.0957C422.814 13.0957 422.468 13.0251 422.222 12.8838C421.976 12.7425 421.802 12.5579 421.702 12.3301C421.602 12.0977 421.552 11.6123 421.552 10.874V6.69727H420.649V5.74023H421.552V3.94238L422.775 3.2041V5.74023H424.013V6.69727H422.775V10.9424C422.775 11.2933 422.796 11.5189 422.837 11.6191C422.882 11.7194 422.953 11.7992 423.049 11.8584C423.149 11.9176 423.29 11.9473 423.473 11.9473C423.609 11.9473 423.789 11.9313 424.013 11.8994ZM430.192 10.6621L431.464 10.8193C431.263 11.5622 430.892 12.1387 430.35 12.5488C429.807 12.959 429.115 13.1641 428.271 13.1641C427.21 13.1641 426.367 12.8382 425.742 12.1865C425.122 11.5303 424.812 10.612 424.812 9.43164C424.812 8.21029 425.127 7.26237 425.756 6.58789C426.385 5.91341 427.201 5.57617 428.203 5.57617C429.174 5.57617 429.967 5.90658 430.582 6.56738C431.197 7.22819 431.505 8.15788 431.505 9.35645C431.505 9.42936 431.503 9.53874 431.498 9.68457H426.084C426.13 10.4821 426.355 11.0928 426.761 11.5166C427.166 11.9404 427.672 12.1523 428.278 12.1523C428.729 12.1523 429.115 12.0339 429.434 11.7969C429.753 11.5599 430.006 11.1816 430.192 10.6621ZM426.152 8.67285H430.206C430.151 8.06217 429.996 7.60417 429.741 7.29883C429.349 6.82487 428.841 6.58789 428.217 6.58789C427.652 6.58789 427.175 6.77702 426.788 7.15527C426.405 7.53353 426.193 8.03939 426.152 8.67285ZM432.523 10.833L433.74 10.6416C433.809 11.1292 433.998 11.5029 434.308 11.7627C434.622 12.0225 435.06 12.1523 435.62 12.1523C436.185 12.1523 436.604 12.0384 436.878 11.8105C437.151 11.5781 437.288 11.307 437.288 10.9971C437.288 10.7191 437.167 10.5003 436.926 10.3408C436.757 10.2314 436.338 10.0924 435.668 9.92383C434.766 9.69596 434.139 9.5 433.788 9.33594C433.442 9.16732 433.177 8.93717 432.995 8.64551C432.817 8.34928 432.729 8.02344 432.729 7.66797C432.729 7.3444 432.801 7.0459 432.947 6.77246C433.098 6.49447 433.3 6.26432 433.556 6.08203C433.747 5.94076 434.007 5.82227 434.335 5.72656C434.668 5.6263 435.023 5.57617 435.401 5.57617C435.971 5.57617 436.47 5.6582 436.898 5.82227C437.331 5.98633 437.65 6.20964 437.855 6.49219C438.061 6.77018 438.202 7.14388 438.279 7.61328L437.076 7.77734C437.021 7.40365 436.862 7.11198 436.598 6.90234C436.338 6.69271 435.969 6.58789 435.49 6.58789C434.925 6.58789 434.522 6.68132 434.28 6.86816C434.039 7.05501 433.918 7.27376 433.918 7.52441C433.918 7.68392 433.968 7.82747 434.068 7.95508C434.169 8.08724 434.326 8.19661 434.54 8.2832C434.663 8.32878 435.025 8.43359 435.627 8.59766C436.497 8.83008 437.104 9.02148 437.445 9.17188C437.792 9.31771 438.063 9.5319 438.259 9.81445C438.455 10.097 438.553 10.4479 438.553 10.8672C438.553 11.2773 438.432 11.6647 438.19 12.0293C437.953 12.3893 437.609 12.6696 437.158 12.8701C436.707 13.0661 436.197 13.1641 435.627 13.1641C434.684 13.1641 433.964 12.9681 433.467 12.5762C432.975 12.1842 432.66 11.6032 432.523 10.833ZM372.545 28.833L373.762 28.6416C373.83 29.1292 374.019 29.5029 374.329 29.7627C374.644 30.0225 375.081 30.1523 375.642 30.1523C376.207 30.1523 376.626 30.0384 376.899 29.8105C377.173 29.5781 377.31 29.307 377.31 28.9971C377.31 28.7191 377.189 28.5003 376.947 28.3408C376.779 28.2314 376.359 28.0924 375.689 27.9238C374.787 27.696 374.16 27.5 373.81 27.3359C373.463 27.1673 373.199 26.9372 373.017 26.6455C372.839 26.3493 372.75 26.0234 372.75 25.668C372.75 25.3444 372.823 25.0459 372.969 24.7725C373.119 24.4945 373.322 24.2643 373.577 24.082C373.769 23.9408 374.028 23.8223 374.356 23.7266C374.689 23.6263 375.045 23.5762 375.423 23.5762C375.993 23.5762 376.492 23.6582 376.92 23.8223C377.353 23.9863 377.672 24.2096 377.877 24.4922C378.082 24.7702 378.223 25.1439 378.301 25.6133L377.098 25.7773C377.043 25.4036 376.883 25.112 376.619 24.9023C376.359 24.6927 375.99 24.5879 375.512 24.5879C374.947 24.5879 374.543 24.6813 374.302 24.8682C374.06 25.055 373.939 25.2738 373.939 25.5244C373.939 25.6839 373.99 25.8275 374.09 25.9551C374.19 26.0872 374.347 26.1966 374.562 26.2832C374.685 26.3288 375.047 26.4336 375.648 26.5977C376.519 26.8301 377.125 27.0215 377.467 27.1719C377.813 27.3177 378.084 27.5319 378.28 27.8145C378.476 28.097 378.574 28.4479 378.574 28.8672C378.574 29.2773 378.453 29.6647 378.212 30.0293C377.975 30.3893 377.631 30.6696 377.18 30.8701C376.729 31.0661 376.218 31.1641 375.648 31.1641C374.705 31.1641 373.985 30.9681 373.488 30.5762C372.996 30.1842 372.682 29.6032 372.545 28.833ZM382.724 29.8994L382.901 30.9863C382.555 31.0592 382.245 31.0957 381.972 31.0957C381.525 31.0957 381.179 31.0251 380.933 30.8838C380.687 30.7425 380.513 30.5579 380.413 30.3301C380.313 30.0977 380.263 29.6123 380.263 28.874V24.6973H379.36V23.7402H380.263V21.9424L381.486 21.2041V23.7402H382.724V24.6973H381.486V28.9424C381.486 29.2933 381.507 29.5189 381.548 29.6191C381.593 29.7194 381.664 29.7992 381.76 29.8584C381.86 29.9176 382.001 29.9473 382.184 29.9473C382.32 29.9473 382.5 29.9313 382.724 29.8994ZM388.671 30.1045C388.215 30.4919 387.775 30.7653 387.352 30.9248C386.932 31.0843 386.481 31.1641 385.998 31.1641C385.201 31.1641 384.588 30.9704 384.159 30.583C383.731 30.1911 383.517 29.6921 383.517 29.0859C383.517 28.7305 383.596 28.4069 383.756 28.1152C383.92 27.819 384.132 27.582 384.392 27.4043C384.656 27.2266 384.952 27.0921 385.28 27.001C385.522 26.9372 385.886 26.8757 386.374 26.8164C387.368 26.6979 388.099 26.5566 388.568 26.3926C388.573 26.224 388.575 26.1169 388.575 26.0713C388.575 25.57 388.459 25.2168 388.227 25.0117C387.912 24.7337 387.445 24.5947 386.825 24.5947C386.246 24.5947 385.818 24.6973 385.54 24.9023C385.267 25.1029 385.064 25.4606 384.932 25.9756L383.729 25.8115C383.838 25.2965 384.018 24.8818 384.269 24.5674C384.519 24.2484 384.882 24.0046 385.355 23.8359C385.829 23.6628 386.379 23.5762 387.003 23.5762C387.623 23.5762 388.126 23.6491 388.514 23.7949C388.901 23.9408 389.186 24.1253 389.368 24.3486C389.55 24.5674 389.678 24.8454 389.751 25.1826C389.792 25.3923 389.812 25.7705 389.812 26.3174V27.958C389.812 29.1019 389.838 29.8265 389.888 30.1318C389.942 30.4326 390.047 30.722 390.202 31H388.917C388.789 30.7448 388.707 30.4463 388.671 30.1045ZM388.568 27.3564C388.122 27.5387 387.452 27.6937 386.559 27.8213C386.053 27.8942 385.695 27.9762 385.485 28.0674C385.276 28.1585 385.114 28.293 385 28.4707C384.886 28.6439 384.829 28.8376 384.829 29.0518C384.829 29.3799 384.952 29.6533 385.198 29.8721C385.449 30.0908 385.813 30.2002 386.292 30.2002C386.766 30.2002 387.188 30.0977 387.557 29.8926C387.926 29.6829 388.197 29.3981 388.37 29.0381C388.502 28.7601 388.568 28.3499 388.568 27.8076V27.3564ZM391.713 31V23.7402H392.82V24.8408C393.103 24.3258 393.363 23.9863 393.6 23.8223C393.841 23.6582 394.105 23.5762 394.393 23.5762C394.807 23.5762 395.229 23.7083 395.657 23.9727L395.233 25.1143C394.933 24.9365 394.632 24.8477 394.331 24.8477C394.062 24.8477 393.821 24.9297 393.606 25.0938C393.392 25.2533 393.24 25.4766 393.148 25.7637C393.012 26.2012 392.943 26.6797 392.943 27.1992V31H391.713ZM399.075 29.8994L399.253 30.9863C398.907 31.0592 398.597 31.0957 398.323 31.0957C397.877 31.0957 397.53 31.0251 397.284 30.8838C397.038 30.7425 396.865 30.5579 396.765 30.3301C396.664 30.0977 396.614 29.6123 396.614 28.874V24.6973H395.712V23.7402H396.614V21.9424L397.838 21.2041V23.7402H399.075V24.6973H397.838V28.9424C397.838 29.2933 397.858 29.5189 397.899 29.6191C397.945 29.7194 398.016 29.7992 398.111 29.8584C398.212 29.9176 398.353 29.9473 398.535 29.9473C398.672 29.9473 398.852 29.9313 399.075 29.8994ZM403.724 27.3701C403.724 26.0257 404.097 25.0299 404.845 24.3828C405.469 23.8451 406.23 23.5762 407.128 23.5762C408.126 23.5762 408.942 23.9043 409.575 24.5605C410.209 25.2122 410.525 26.1146 410.525 27.2676C410.525 28.2018 410.384 28.9378 410.102 29.4756C409.824 30.0088 409.416 30.4235 408.878 30.7197C408.345 31.016 407.761 31.1641 407.128 31.1641C406.112 31.1641 405.289 30.8382 404.66 30.1865C404.036 29.5348 403.724 28.596 403.724 27.3701ZM404.988 27.3701C404.988 28.2998 405.191 28.9971 405.597 29.4619C406.002 29.9222 406.513 30.1523 407.128 30.1523C407.739 30.1523 408.247 29.9199 408.652 29.4551C409.058 28.9902 409.261 28.2816 409.261 27.3291C409.261 26.4313 409.056 25.7523 408.646 25.292C408.24 24.8271 407.734 24.5947 407.128 24.5947C406.513 24.5947 406.002 24.8249 405.597 25.2852C405.191 25.7454 404.988 26.4404 404.988 27.3701ZM412.269 31V24.6973H411.182V23.7402H412.269V22.9678C412.269 22.4801 412.312 22.1178 412.398 21.8809C412.517 21.5618 412.724 21.3044 413.021 21.1084C413.321 20.9079 413.741 20.8076 414.278 20.8076C414.625 20.8076 415.007 20.8486 415.427 20.9307L415.242 22.0039C414.987 21.9583 414.745 21.9355 414.518 21.9355C414.144 21.9355 413.88 22.0153 413.725 22.1748C413.57 22.3343 413.492 22.6328 413.492 23.0703V23.7402H414.907V24.6973H413.492V31H412.269ZM424.396 33.7822V30.2275C424.204 30.4964 423.935 30.7197 423.589 30.8975C423.247 31.0752 422.882 31.1641 422.495 31.1641C421.634 31.1641 420.891 30.82 420.267 30.1318C419.647 29.4437 419.337 28.5003 419.337 27.3018C419.337 26.5726 419.462 25.9186 419.713 25.3398C419.968 24.7611 420.335 24.3236 420.813 24.0273C421.297 23.7266 421.825 23.5762 422.399 23.5762C423.297 23.5762 424.004 23.9544 424.519 24.7109V23.7402H425.626V33.7822H424.396ZM420.602 27.3496C420.602 28.2839 420.798 28.9857 421.189 29.4551C421.581 29.9199 422.051 30.1523 422.598 30.1523C423.122 30.1523 423.573 29.9313 423.951 29.4893C424.329 29.0426 424.519 28.3659 424.519 27.459C424.519 26.4928 424.318 25.766 423.917 25.2783C423.521 24.7907 423.053 24.5469 422.516 24.5469C421.982 24.5469 421.529 24.7747 421.155 25.2305C420.786 25.6816 420.602 26.388 420.602 27.3496ZM432.318 31V29.9336C431.753 30.7539 430.985 31.1641 430.015 31.1641C429.586 31.1641 429.185 31.082 428.812 30.918C428.442 30.7539 428.167 30.5488 427.984 30.3027C427.807 30.0521 427.681 29.7467 427.608 29.3867C427.558 29.1452 427.533 28.7624 427.533 28.2383V23.7402H428.764V27.7666C428.764 28.4092 428.789 28.8421 428.839 29.0654C428.916 29.389 429.08 29.6442 429.331 29.8311C429.582 30.0133 429.892 30.1045 430.261 30.1045C430.63 30.1045 430.976 30.0111 431.3 29.8242C431.623 29.6328 431.851 29.3753 431.983 29.0518C432.12 28.7236 432.188 28.2497 432.188 27.6299V23.7402H433.419V31H432.318ZM440.323 28.6621L441.595 28.8193C441.394 29.5622 441.023 30.1387 440.48 30.5488C439.938 30.959 439.245 31.1641 438.402 31.1641C437.34 31.1641 436.497 30.8382 435.873 30.1865C435.253 29.5303 434.943 28.612 434.943 27.4316C434.943 26.2103 435.258 25.2624 435.887 24.5879C436.516 23.9134 437.331 23.5762 438.334 23.5762C439.305 23.5762 440.098 23.9066 440.713 24.5674C441.328 25.2282 441.636 26.1579 441.636 27.3564C441.636 27.4294 441.633 27.5387 441.629 27.6846H436.215C436.26 28.4821 436.486 29.0928 436.892 29.5166C437.297 29.9404 437.803 30.1523 438.409 30.1523C438.86 30.1523 439.245 30.0339 439.564 29.7969C439.883 29.5599 440.136 29.1816 440.323 28.6621ZM436.283 26.6729H440.337C440.282 26.0622 440.127 25.6042 439.872 25.2988C439.48 24.8249 438.972 24.5879 438.348 24.5879C437.783 24.5879 437.306 24.777 436.919 25.1553C436.536 25.5335 436.324 26.0394 436.283 26.6729ZM443.133 31V23.7402H444.24V24.8408C444.523 24.3258 444.783 23.9863 445.02 23.8223C445.261 23.6582 445.525 23.5762 445.812 23.5762C446.227 23.5762 446.649 23.7083 447.077 23.9727L446.653 25.1143C446.353 24.9365 446.052 24.8477 445.751 24.8477C445.482 24.8477 445.241 24.9297 445.026 25.0938C444.812 25.2533 444.66 25.4766 444.568 25.7637C444.432 26.2012 444.363 26.6797 444.363 27.1992V31H443.133ZM447.754 33.7959L447.617 32.6406C447.886 32.7135 448.121 32.75 448.321 32.75C448.595 32.75 448.813 32.7044 448.978 32.6133C449.142 32.5221 449.276 32.3945 449.381 32.2305C449.458 32.1074 449.584 31.8021 449.757 31.3145C449.78 31.2461 449.816 31.1458 449.866 31.0137L447.111 23.7402H448.438L449.948 27.9443C450.144 28.4775 450.32 29.0381 450.475 29.626C450.616 29.0609 450.785 28.5094 450.98 27.9717L452.532 23.7402H453.763L451.001 31.123C450.705 31.9206 450.475 32.4697 450.311 32.7705C450.092 33.1761 449.841 33.4723 449.559 33.6592C449.276 33.8506 448.939 33.9463 448.547 33.9463C448.31 33.9463 448.046 33.8962 447.754 33.7959Z" fill="black"/>
<path d="M505.595 13V2.97852H506.921V11.8174H511.856V13H505.595ZM518.255 10.6621L519.526 10.8193C519.326 11.5622 518.954 12.1387 518.412 12.5488C517.87 12.959 517.177 13.1641 516.334 13.1641C515.272 13.1641 514.429 12.8382 513.805 12.1865C513.185 11.5303 512.875 10.612 512.875 9.43164C512.875 8.21029 513.189 7.26237 513.818 6.58789C514.447 5.91341 515.263 5.57617 516.266 5.57617C517.236 5.57617 518.029 5.90658 518.645 6.56738C519.26 7.22819 519.567 8.15788 519.567 9.35645C519.567 9.42936 519.565 9.53874 519.561 9.68457H514.146C514.192 10.4821 514.418 11.0928 514.823 11.5166C515.229 11.9404 515.735 12.1523 516.341 12.1523C516.792 12.1523 517.177 12.0339 517.496 11.7969C517.815 11.5599 518.068 11.1816 518.255 10.6621ZM514.215 8.67285H518.269C518.214 8.06217 518.059 7.60417 517.804 7.29883C517.412 6.82487 516.904 6.58789 516.279 6.58789C515.714 6.58789 515.238 6.77702 514.851 7.15527C514.468 7.53353 514.256 8.03939 514.215 8.67285ZM523.765 11.8994L523.942 12.9863C523.596 13.0592 523.286 13.0957 523.013 13.0957C522.566 13.0957 522.22 13.0251 521.974 12.8838C521.728 12.7425 521.554 12.5579 521.454 12.3301C521.354 12.0977 521.304 11.6123 521.304 10.874V6.69727H520.401V5.74023H521.304V3.94238L522.527 3.2041V5.74023H523.765V6.69727H522.527V10.9424C522.527 11.2933 522.548 11.5189 522.589 11.6191C522.634 11.7194 522.705 11.7992 522.801 11.8584C522.901 11.9176 523.042 11.9473 523.225 11.9473C523.361 11.9473 523.541 11.9313 523.765 11.8994ZM524.482 10.833L525.699 10.6416C525.768 11.1292 525.957 11.5029 526.267 11.7627C526.581 12.0225 527.019 12.1523 527.579 12.1523C528.144 12.1523 528.563 12.0384 528.837 11.8105C529.11 11.5781 529.247 11.307 529.247 10.9971C529.247 10.7191 529.126 10.5003 528.885 10.3408C528.716 10.2314 528.297 10.0924 527.627 9.92383C526.725 9.69596 526.098 9.5 525.747 9.33594C525.401 9.16732 525.136 8.93717 524.954 8.64551C524.776 8.34928 524.688 8.02344 524.688 7.66797C524.688 7.3444 524.76 7.0459 524.906 6.77246C525.057 6.49447 525.259 6.26432 525.515 6.08203C525.706 5.94076 525.966 5.82227 526.294 5.72656C526.627 5.6263 526.982 5.57617 527.36 5.57617C527.93 5.57617 528.429 5.6582 528.857 5.82227C529.29 5.98633 529.609 6.20964 529.814 6.49219C530.02 6.77018 530.161 7.14388 530.238 7.61328L529.035 7.77734C528.98 7.40365 528.821 7.11198 528.557 6.90234C528.297 6.69271 527.928 6.58789 527.449 6.58789C526.884 6.58789 526.481 6.68132 526.239 6.86816C525.998 7.05501 525.877 7.27376 525.877 7.52441C525.877 7.68392 525.927 7.82747 526.027 7.95508C526.128 8.08724 526.285 8.19661 526.499 8.2832C526.622 8.32878 526.984 8.43359 527.586 8.59766C528.456 8.83008 529.062 9.02148 529.404 9.17188C529.751 9.31771 530.022 9.5319 530.218 9.81445C530.414 10.097 530.512 10.4479 530.512 10.8672C530.512 11.2773 530.391 11.6647 530.149 12.0293C529.912 12.3893 529.568 12.6696 529.117 12.8701C528.666 13.0661 528.156 13.1641 527.586 13.1641C526.643 13.1641 525.923 12.9681 525.426 12.5762C524.934 12.1842 524.619 11.6032 524.482 10.833ZM535.816 15.7959L535.68 14.6406C535.949 14.7135 536.183 14.75 536.384 14.75C536.657 14.75 536.876 14.7044 537.04 14.6133C537.204 14.5221 537.339 14.3945 537.443 14.2305C537.521 14.1074 537.646 13.8021 537.819 13.3145C537.842 13.2461 537.879 13.1458 537.929 13.0137L535.174 5.74023H536.5L538.011 9.94434C538.207 10.4775 538.382 11.0381 538.537 11.626C538.678 11.0609 538.847 10.5094 539.043 9.97168L540.595 5.74023H541.825L539.063 13.123C538.767 13.9206 538.537 14.4697 538.373 14.7705C538.154 15.1761 537.904 15.4723 537.621 15.6592C537.339 15.8506 537.001 15.9463 536.609 15.9463C536.372 15.9463 536.108 15.8962 535.816 15.7959ZM542.413 9.37012C542.413 8.02572 542.787 7.02995 543.534 6.38281C544.159 5.84505 544.92 5.57617 545.817 5.57617C546.815 5.57617 547.631 5.9043 548.265 6.56055C548.898 7.21224 549.215 8.11458 549.215 9.26758C549.215 10.2018 549.074 10.9378 548.791 11.4756C548.513 12.0088 548.105 12.4235 547.567 12.7197C547.034 13.016 546.451 13.1641 545.817 13.1641C544.801 13.1641 543.979 12.8382 543.35 12.1865C542.725 11.5348 542.413 10.596 542.413 9.37012ZM543.678 9.37012C543.678 10.2998 543.881 10.9971 544.286 11.4619C544.692 11.9222 545.202 12.1523 545.817 12.1523C546.428 12.1523 546.936 11.9199 547.342 11.4551C547.747 10.9902 547.95 10.2816 547.95 9.3291C547.95 8.43132 547.745 7.75228 547.335 7.29199C546.929 6.82715 546.424 6.59473 545.817 6.59473C545.202 6.59473 544.692 6.82487 544.286 7.28516C543.881 7.74544 543.678 8.44043 543.678 9.37012ZM555.422 13V11.9336C554.857 12.7539 554.089 13.1641 553.118 13.1641C552.69 13.1641 552.289 13.082 551.915 12.918C551.546 12.7539 551.27 12.5488 551.088 12.3027C550.91 12.0521 550.785 11.7467 550.712 11.3867C550.662 11.1452 550.637 10.7624 550.637 10.2383V5.74023H551.867V9.7666C551.867 10.4092 551.892 10.8421 551.942 11.0654C552.02 11.389 552.184 11.6442 552.435 11.8311C552.685 12.0133 552.995 12.1045 553.364 12.1045C553.733 12.1045 554.08 12.0111 554.403 11.8242C554.727 11.6328 554.955 11.3753 555.087 11.0518C555.224 10.7236 555.292 10.2497 555.292 9.62988V5.74023H556.522V13H555.422ZM481.792 30.1045C481.336 30.4919 480.896 30.7653 480.473 30.9248C480.053 31.0843 479.602 31.1641 479.119 31.1641C478.322 31.1641 477.709 30.9704 477.28 30.583C476.852 30.1911 476.638 29.6921 476.638 29.0859C476.638 28.7305 476.717 28.4069 476.877 28.1152C477.041 27.819 477.253 27.582 477.513 27.4043C477.777 27.2266 478.073 27.0921 478.401 27.001C478.643 26.9372 479.007 26.8757 479.495 26.8164C480.489 26.6979 481.22 26.5566 481.689 26.3926C481.694 26.224 481.696 26.1169 481.696 26.0713C481.696 25.57 481.58 25.2168 481.348 25.0117C481.033 24.7337 480.566 24.5947 479.946 24.5947C479.368 24.5947 478.939 24.6973 478.661 24.9023C478.388 25.1029 478.185 25.4606 478.053 25.9756L476.85 25.8115C476.959 25.2965 477.139 24.8818 477.39 24.5674C477.64 24.2484 478.003 24.0046 478.477 23.8359C478.951 23.6628 479.5 23.5762 480.124 23.5762C480.744 23.5762 481.247 23.6491 481.635 23.7949C482.022 23.9408 482.307 24.1253 482.489 24.3486C482.672 24.5674 482.799 24.8454 482.872 25.1826C482.913 25.3923 482.934 25.7705 482.934 26.3174V27.958C482.934 29.1019 482.959 29.8265 483.009 30.1318C483.063 30.4326 483.168 30.722 483.323 31H482.038C481.91 30.7448 481.828 30.4463 481.792 30.1045ZM481.689 27.3564C481.243 27.5387 480.573 27.6937 479.68 27.8213C479.174 27.8942 478.816 27.9762 478.606 28.0674C478.397 28.1585 478.235 28.293 478.121 28.4707C478.007 28.6439 477.95 28.8376 477.95 29.0518C477.95 29.3799 478.073 29.6533 478.319 29.8721C478.57 30.0908 478.935 30.2002 479.413 30.2002C479.887 30.2002 480.309 30.0977 480.678 29.8926C481.047 29.6829 481.318 29.3981 481.491 29.0381C481.623 28.7601 481.689 28.3499 481.689 27.8076V27.3564ZM489.558 31V30.084C489.097 30.804 488.421 31.1641 487.527 31.1641C486.949 31.1641 486.415 31.0046 485.928 30.6855C485.445 30.3665 485.069 29.9222 484.8 29.3525C484.535 28.7783 484.403 28.1198 484.403 27.377C484.403 26.6523 484.524 25.9961 484.766 25.4082C485.007 24.8158 485.369 24.3623 485.853 24.0479C486.336 23.7334 486.876 23.5762 487.473 23.5762C487.91 23.5762 488.3 23.6696 488.642 23.8564C488.983 24.0387 489.261 24.278 489.476 24.5742V20.9785H490.699V31H489.558ZM485.668 27.377C485.668 28.3066 485.864 29.0016 486.256 29.4619C486.648 29.9222 487.11 30.1523 487.644 30.1523C488.181 30.1523 488.637 29.9336 489.011 29.4961C489.389 29.054 489.578 28.3818 489.578 27.4795C489.578 26.486 489.387 25.7568 489.004 25.292C488.621 24.8271 488.149 24.5947 487.589 24.5947C487.042 24.5947 486.584 24.818 486.215 25.2646C485.85 25.7113 485.668 26.4154 485.668 27.377ZM497.351 31V30.084C496.89 30.804 496.214 31.1641 495.32 31.1641C494.742 31.1641 494.208 31.0046 493.721 30.6855C493.238 30.3665 492.862 29.9222 492.593 29.3525C492.328 28.7783 492.196 28.1198 492.196 27.377C492.196 26.6523 492.317 25.9961 492.559 25.4082C492.8 24.8158 493.162 24.3623 493.646 24.0479C494.129 23.7334 494.669 23.5762 495.266 23.5762C495.703 23.5762 496.093 23.6696 496.435 23.8564C496.776 24.0387 497.054 24.278 497.269 24.5742V20.9785H498.492V31H497.351ZM493.461 27.377C493.461 28.3066 493.657 29.0016 494.049 29.4619C494.441 29.9222 494.903 30.1523 495.437 30.1523C495.974 30.1523 496.43 29.9336 496.804 29.4961C497.182 29.054 497.371 28.3818 497.371 27.4795C497.371 26.486 497.18 25.7568 496.797 25.292C496.414 24.8271 495.942 24.5947 495.382 24.5947C494.835 24.5947 494.377 24.818 494.008 25.2646C493.643 25.7113 493.461 26.4154 493.461 27.377ZM509.067 30.1045C508.612 30.4919 508.172 30.7653 507.748 30.9248C507.329 31.0843 506.878 31.1641 506.395 31.1641C505.597 31.1641 504.984 30.9704 504.556 30.583C504.127 30.1911 503.913 29.6921 503.913 29.0859C503.913 28.7305 503.993 28.4069 504.152 28.1152C504.316 27.819 504.528 27.582 504.788 27.4043C505.052 27.2266 505.349 27.0921 505.677 27.001C505.918 26.9372 506.283 26.8757 506.771 26.8164C507.764 26.6979 508.495 26.5566 508.965 26.3926C508.969 26.224 508.972 26.1169 508.972 26.0713C508.972 25.57 508.855 25.2168 508.623 25.0117C508.309 24.7337 507.841 24.5947 507.222 24.5947C506.643 24.5947 506.215 24.6973 505.937 24.9023C505.663 25.1029 505.46 25.4606 505.328 25.9756L504.125 25.8115C504.234 25.2965 504.414 24.8818 504.665 24.5674C504.916 24.2484 505.278 24.0046 505.752 23.8359C506.226 23.6628 506.775 23.5762 507.399 23.5762C508.019 23.5762 508.523 23.6491 508.91 23.7949C509.298 23.9408 509.582 24.1253 509.765 24.3486C509.947 24.5674 510.075 24.8454 510.147 25.1826C510.188 25.3923 510.209 25.7705 510.209 26.3174V27.958C510.209 29.1019 510.234 29.8265 510.284 30.1318C510.339 30.4326 510.444 30.722 510.599 31H509.313C509.186 30.7448 509.104 30.4463 509.067 30.1045ZM508.965 27.3564C508.518 27.5387 507.848 27.6937 506.955 27.8213C506.449 27.8942 506.091 27.9762 505.882 28.0674C505.672 28.1585 505.51 28.293 505.396 28.4707C505.283 28.6439 505.226 28.8376 505.226 29.0518C505.226 29.3799 505.349 29.6533 505.595 29.8721C505.845 30.0908 506.21 30.2002 506.688 30.2002C507.162 30.2002 507.584 30.0977 507.953 29.8926C508.322 29.6829 508.593 29.3981 508.767 29.0381C508.899 28.7601 508.965 28.3499 508.965 27.8076V27.3564ZM512.123 31V23.7402H513.23V24.7725C513.764 23.9749 514.534 23.5762 515.541 23.5762C515.979 23.5762 516.38 23.6559 516.744 23.8154C517.113 23.9704 517.389 24.1755 517.571 24.4307C517.754 24.6859 517.881 24.9889 517.954 25.3398C518 25.5677 518.022 25.9665 518.022 26.5361V31H516.792V26.584C516.792 26.0827 516.744 25.709 516.648 25.4629C516.553 25.2122 516.382 25.014 516.136 24.8682C515.894 24.7178 515.609 24.6426 515.281 24.6426C514.757 24.6426 514.304 24.8089 513.921 25.1416C513.543 25.4743 513.354 26.1055 513.354 27.0352V31H512.123ZM519.458 27.3701C519.458 26.0257 519.832 25.0299 520.579 24.3828C521.203 23.8451 521.965 23.5762 522.862 23.5762C523.86 23.5762 524.676 23.9043 525.31 24.5605C525.943 25.2122 526.26 26.1146 526.26 27.2676C526.26 28.2018 526.118 28.9378 525.836 29.4756C525.558 30.0088 525.15 30.4235 524.612 30.7197C524.079 31.016 523.496 31.1641 522.862 31.1641C521.846 31.1641 521.023 30.8382 520.395 30.1865C519.77 29.5348 519.458 28.596 519.458 27.3701ZM520.723 27.3701C520.723 28.2998 520.925 28.9971 521.331 29.4619C521.737 29.9222 522.247 30.1523 522.862 30.1523C523.473 30.1523 523.981 29.9199 524.387 29.4551C524.792 28.9902 524.995 28.2816 524.995 27.3291C524.995 26.4313 524.79 25.7523 524.38 25.292C523.974 24.8271 523.468 24.5947 522.862 24.5947C522.247 24.5947 521.737 24.8249 521.331 25.2852C520.925 25.7454 520.723 26.4404 520.723 27.3701ZM530.396 29.8994L530.573 30.9863C530.227 31.0592 529.917 31.0957 529.644 31.0957C529.197 31.0957 528.851 31.0251 528.604 30.8838C528.358 30.7425 528.185 30.5579 528.085 30.3301C527.985 30.0977 527.935 29.6123 527.935 28.874V24.6973H527.032V23.7402H527.935V21.9424L529.158 21.2041V23.7402H530.396V24.6973H529.158V28.9424C529.158 29.2933 529.179 29.5189 529.22 29.6191C529.265 29.7194 529.336 29.7992 529.432 29.8584C529.532 29.9176 529.673 29.9473 529.855 29.9473C529.992 29.9473 530.172 29.9313 530.396 29.8994ZM531.605 31V20.9785H532.836V24.5742C533.41 23.9089 534.135 23.5762 535.01 23.5762C535.548 23.5762 536.015 23.6833 536.411 23.8975C536.808 24.1071 537.09 24.3988 537.259 24.7725C537.432 25.1462 537.519 25.6885 537.519 26.3994V31H536.288V26.3994C536.288 25.7842 536.154 25.3376 535.885 25.0596C535.62 24.777 535.244 24.6357 534.757 24.6357C534.392 24.6357 534.048 24.7314 533.725 24.9229C533.406 25.1097 533.178 25.3649 533.041 25.6885C532.904 26.012 532.836 26.4587 532.836 27.0283V31H531.605ZM544.368 28.6621L545.64 28.8193C545.439 29.5622 545.068 30.1387 544.525 30.5488C543.983 30.959 543.29 31.1641 542.447 31.1641C541.385 31.1641 540.542 30.8382 539.918 30.1865C539.298 29.5303 538.988 28.612 538.988 27.4316C538.988 26.2103 539.303 25.2624 539.932 24.5879C540.561 23.9134 541.376 23.5762 542.379 23.5762C543.35 23.5762 544.143 23.9066 544.758 24.5674C545.373 25.2282 545.681 26.1579 545.681 27.3564C545.681 27.4294 545.678 27.5387 545.674 27.6846H540.26C540.305 28.4821 540.531 29.0928 540.937 29.5166C541.342 29.9404 541.848 30.1523 542.454 30.1523C542.905 30.1523 543.29 30.0339 543.609 29.7969C543.928 29.5599 544.181 29.1816 544.368 28.6621ZM540.328 26.6729H544.382C544.327 26.0622 544.172 25.6042 543.917 25.2988C543.525 24.8249 543.017 24.5879 542.393 24.5879C541.827 24.5879 541.351 24.777 540.964 25.1553C540.581 25.5335 540.369 26.0394 540.328 26.6729ZM547.178 31V23.7402H548.285V24.8408C548.568 24.3258 548.827 23.9863 549.064 23.8223C549.306 23.6582 549.57 23.5762 549.857 23.5762C550.272 23.5762 550.694 23.7083 551.122 23.9727L550.698 25.1143C550.397 24.9365 550.097 24.8477 549.796 24.8477C549.527 24.8477 549.285 24.9297 549.071 25.0938C548.857 25.2533 548.704 25.4766 548.613 25.7637C548.477 26.2012 548.408 26.6797 548.408 27.1992V31H547.178ZM560.378 33.7822V30.2275C560.187 30.4964 559.918 30.7197 559.571 30.8975C559.229 31.0752 558.865 31.1641 558.478 31.1641C557.616 31.1641 556.873 30.82 556.249 30.1318C555.629 29.4437 555.319 28.5003 555.319 27.3018C555.319 26.5726 555.445 25.9186 555.695 25.3398C555.951 24.7611 556.317 24.3236 556.796 24.0273C557.279 23.7266 557.808 23.5762 558.382 23.5762C559.28 23.5762 559.986 23.9544 560.501 24.7109V23.7402H561.608V33.7822H560.378ZM556.584 27.3496C556.584 28.2839 556.78 28.9857 557.172 29.4551C557.564 29.9199 558.033 30.1523 558.58 30.1523C559.104 30.1523 559.555 29.9313 559.934 29.4893C560.312 29.0426 560.501 28.3659 560.501 27.459C560.501 26.4928 560.3 25.766 559.899 25.2783C559.503 24.7907 559.036 24.5469 558.498 24.5469C557.965 24.5469 557.511 24.7747 557.138 25.2305C556.769 25.6816 556.584 26.388 556.584 27.3496ZM568.301 31V29.9336C567.736 30.7539 566.968 31.1641 565.997 31.1641C565.569 31.1641 565.168 31.082 564.794 30.918C564.425 30.7539 564.149 30.5488 563.967 30.3027C563.789 30.0521 563.664 29.7467 563.591 29.3867C563.541 29.1452 563.516 28.7624 563.516 28.2383V23.7402H564.746V27.7666C564.746 28.4092 564.771 28.8421 564.821 29.0654C564.899 29.389 565.063 29.6442 565.313 29.8311C565.564 30.0133 565.874 30.1045 566.243 30.1045C566.612 30.1045 566.959 30.0111 567.282 29.8242C567.606 29.6328 567.834 29.3753 567.966 29.0518C568.103 28.7236 568.171 28.2497 568.171 27.6299V23.7402H569.401V31H568.301ZM576.306 28.6621L577.577 28.8193C577.377 29.5622 577.005 30.1387 576.463 30.5488C575.921 30.959 575.228 31.1641 574.385 31.1641C573.323 31.1641 572.48 30.8382 571.855 30.1865C571.236 29.5303 570.926 28.612 570.926 27.4316C570.926 26.2103 571.24 25.2624 571.869 24.5879C572.498 23.9134 573.314 23.5762 574.316 23.5762C575.287 23.5762 576.08 23.9066 576.695 24.5674C577.311 25.2282 577.618 26.1579 577.618 27.3564C577.618 27.4294 577.616 27.5387 577.611 27.6846H572.197C572.243 28.4821 572.468 29.0928 572.874 29.5166C573.28 29.9404 573.785 30.1523 574.392 30.1523C574.843 30.1523 575.228 30.0339 575.547 29.7969C575.866 29.5599 576.119 29.1816 576.306 28.6621ZM572.266 26.6729H576.319C576.265 26.0622 576.11 25.6042 575.854 25.2988C575.463 24.8249 574.954 24.5879 574.33 24.5879C573.765 24.5879 573.289 24.777 572.901 25.1553C572.519 25.5335 572.307 26.0394 572.266 26.6729ZM579.115 31V23.7402H580.223V24.8408C580.505 24.3258 580.765 23.9863 581.002 23.8223C581.243 23.6582 581.508 23.5762 581.795 23.5762C582.21 23.5762 582.631 23.7083 583.06 23.9727L582.636 25.1143C582.335 24.9365 582.034 24.8477 581.733 24.8477C581.465 24.8477 581.223 24.9297 581.009 25.0938C580.795 25.2533 580.642 25.4766 580.551 25.7637C580.414 26.2012 580.346 26.6797 580.346 27.1992V31H579.115ZM583.736 33.7959L583.6 32.6406C583.868 32.7135 584.103 32.75 584.304 32.75C584.577 32.75 584.796 32.7044 584.96 32.6133C585.124 32.5221 585.258 32.3945 585.363 32.2305C585.441 32.1074 585.566 31.8021 585.739 31.3145C585.762 31.2461 585.799 31.1458 585.849 31.0137L583.094 23.7402H584.42L585.931 27.9443C586.127 28.4775 586.302 29.0381 586.457 29.626C586.598 29.0609 586.767 28.5094 586.963 27.9717L588.515 23.7402H589.745L586.983 31.123C586.687 31.9206 586.457 32.4697 586.293 32.7705C586.074 33.1761 585.824 33.4723 585.541 33.6592C585.258 33.8506 584.921 33.9463 584.529 33.9463C584.292 33.9463 584.028 33.8962 583.736 33.7959Z" fill="black"/>
<path d="M574.354 87.6464C574.158 87.4512 573.842 87.4512 573.646 87.6464L570.464 90.8284C570.269 91.0237 570.269 91.3403 570.464 91.5355C570.66 91.7308 570.976 91.7308 571.172 91.5355L574 88.7071L576.828 91.5355C577.024 91.7308 577.34 91.7308 577.536 91.5355C577.731 91.3403 577.731 91.0237 577.536 90.8284L574.354 87.6464ZM574.5 112L574.5 88L573.5 88L573.5 112L574.5 112Z" fill="black"/>
<path d="M557.758 124.927C558.373 125.351 558.94 125.66 559.46 125.856L559.07 126.779C558.35 126.52 557.632 126.109 556.917 125.549C556.174 125.964 555.354 126.171 554.456 126.171C553.549 126.171 552.727 125.952 551.988 125.515C551.25 125.077 550.68 124.462 550.279 123.669C549.883 122.876 549.685 121.983 549.685 120.989C549.685 120 549.885 119.1 550.286 118.289C550.687 117.478 551.257 116.86 551.995 116.437C552.738 116.013 553.567 115.801 554.483 115.801C555.409 115.801 556.243 116.022 556.985 116.464C557.728 116.901 558.293 117.517 558.681 118.31C559.073 119.098 559.269 119.989 559.269 120.982C559.269 121.807 559.143 122.55 558.893 123.211C558.642 123.867 558.264 124.439 557.758 124.927ZM554.839 123.231C555.604 123.446 556.236 123.765 556.732 124.188C557.512 123.478 557.901 122.409 557.901 120.982C557.901 120.171 557.762 119.463 557.484 118.856C557.211 118.25 556.808 117.781 556.274 117.448C555.746 117.111 555.151 116.942 554.49 116.942C553.501 116.942 552.681 117.282 552.029 117.961C551.378 118.635 551.052 119.645 551.052 120.989C551.052 122.293 551.373 123.293 552.016 123.99C552.663 124.688 553.488 125.036 554.49 125.036C554.964 125.036 555.411 124.947 555.83 124.77C555.415 124.501 554.978 124.309 554.518 124.195L554.839 123.231ZM565.66 126V124.934C565.095 125.754 564.327 126.164 563.356 126.164C562.928 126.164 562.527 126.082 562.153 125.918C561.784 125.754 561.508 125.549 561.326 125.303C561.148 125.052 561.023 124.747 560.95 124.387C560.9 124.145 560.875 123.762 560.875 123.238V118.74H562.105V122.767C562.105 123.409 562.131 123.842 562.181 124.065C562.258 124.389 562.422 124.644 562.673 124.831C562.924 125.013 563.233 125.104 563.603 125.104C563.972 125.104 564.318 125.011 564.642 124.824C564.965 124.633 565.193 124.375 565.325 124.052C565.462 123.724 565.53 123.25 565.53 122.63V118.74H566.761V126H565.66ZM573.665 123.662L574.937 123.819C574.736 124.562 574.365 125.139 573.822 125.549C573.28 125.959 572.587 126.164 571.744 126.164C570.682 126.164 569.839 125.838 569.215 125.187C568.595 124.53 568.285 123.612 568.285 122.432C568.285 121.21 568.6 120.262 569.229 119.588C569.857 118.913 570.673 118.576 571.676 118.576C572.646 118.576 573.439 118.907 574.055 119.567C574.67 120.228 574.978 121.158 574.978 122.356C574.978 122.429 574.975 122.539 574.971 122.685H569.557C569.602 123.482 569.828 124.093 570.233 124.517C570.639 124.94 571.145 125.152 571.751 125.152C572.202 125.152 572.587 125.034 572.906 124.797C573.225 124.56 573.478 124.182 573.665 123.662ZM569.625 121.673H573.679C573.624 121.062 573.469 120.604 573.214 120.299C572.822 119.825 572.314 119.588 571.689 119.588C571.124 119.588 570.648 119.777 570.261 120.155C569.878 120.534 569.666 121.039 569.625 121.673ZM576.475 126V118.74H577.582V119.841C577.865 119.326 578.124 118.986 578.361 118.822C578.603 118.658 578.867 118.576 579.154 118.576C579.569 118.576 579.991 118.708 580.419 118.973L579.995 120.114C579.694 119.937 579.394 119.848 579.093 119.848C578.824 119.848 578.582 119.93 578.368 120.094C578.154 120.253 578.001 120.477 577.91 120.764C577.773 121.201 577.705 121.68 577.705 122.199V126H576.475ZM581.096 128.796L580.959 127.641C581.228 127.714 581.463 127.75 581.663 127.75C581.937 127.75 582.155 127.704 582.319 127.613C582.483 127.522 582.618 127.395 582.723 127.23C582.8 127.107 582.925 126.802 583.099 126.314C583.121 126.246 583.158 126.146 583.208 126.014L580.453 118.74H581.779L583.29 122.944C583.486 123.478 583.661 124.038 583.816 124.626C583.958 124.061 584.126 123.509 584.322 122.972L585.874 118.74H587.104L584.343 126.123C584.047 126.921 583.816 127.47 583.652 127.771C583.434 128.176 583.183 128.472 582.9 128.659C582.618 128.851 582.281 128.946 581.889 128.946C581.652 128.946 581.387 128.896 581.096 128.796ZM598.172 124.817V126H591.548C591.539 125.704 591.587 125.419 591.691 125.146C591.86 124.694 592.129 124.25 592.498 123.812C592.872 123.375 593.41 122.869 594.111 122.295C595.201 121.402 595.937 120.695 596.319 120.176C596.702 119.652 596.894 119.157 596.894 118.692C596.894 118.205 596.718 117.795 596.367 117.462C596.021 117.125 595.567 116.956 595.007 116.956C594.414 116.956 593.94 117.134 593.585 117.489C593.229 117.845 593.049 118.337 593.045 118.966L591.78 118.836C591.867 117.893 592.193 117.175 592.758 116.683C593.323 116.186 594.082 115.938 595.034 115.938C595.996 115.938 596.757 116.204 597.317 116.737C597.878 117.271 598.158 117.931 598.158 118.72C598.158 119.121 598.076 119.515 597.912 119.902C597.748 120.29 597.475 120.698 597.092 121.126C596.714 121.554 596.082 122.142 595.198 122.89C594.46 123.509 593.986 123.931 593.776 124.154C593.567 124.373 593.394 124.594 593.257 124.817H598.172Z" fill="black"/>
<path d="M36.006 80V73.448C36.582 72.386 37.5 71.72 38.562 71.72C39.678 71.72 40.398 72.422 40.398 73.862V80H41.766V73.538C41.766 71.666 40.668 70.424 38.958 70.424C37.662 70.424 36.78 71.036 36.006 72.242V67.112H34.62V80H36.006ZM48.4664 80.144C49.0784 80.144 49.7264 80.036 50.3204 79.784L50.0324 78.614C49.5284 78.83 48.9884 78.92 48.5924 78.92C47.7104 78.92 47.1164 78.344 47.1164 77.048V71.81H50.1944V70.604H47.1164V68.012H45.7484V70.604H43.8584V71.81H45.7484V77.012C45.7484 79.082 46.7204 80.144 48.4664 80.144ZM56.148 80.144C56.76 80.144 57.408 80.036 58.002 79.784L57.714 78.614C57.21 78.83 56.67 78.92 56.274 78.92C55.392 78.92 54.798 78.344 54.798 77.048V71.81H57.876V70.604H54.798V68.012H53.43V70.604H51.54V71.81H53.43V77.012C53.43 79.082 54.402 80.144 56.148 80.144ZM63.8476 78.956C62.9476 78.938 62.2996 78.74 61.6876 78.29V73.232C62.2816 72.242 63.1816 71.72 64.0456 71.72C65.3236 71.72 66.2956 72.458 66.2956 75.194C66.2956 77.948 65.2156 78.938 63.8476 78.956ZM64.0276 80.162C65.9356 80.162 67.6636 78.704 67.6636 75.194C67.6636 71.9 66.2596 70.424 64.4416 70.424C63.1636 70.424 62.2276 71.216 61.6516 72.062V70.604H60.3016V83.132H61.6876V79.55C62.2636 79.928 63.0196 80.162 64.0276 80.162ZM73.3435 80.162C75.2155 80.162 76.7995 79.226 76.7995 77.444C76.7995 75.698 75.7015 75.104 73.6495 74.654C71.9395 74.276 71.3995 73.952 71.3995 73.034C71.3995 72.026 72.2635 71.648 73.2175 71.648C74.1895 71.648 75.1075 72.044 75.8635 72.638L76.5115 71.594C75.5755 70.856 74.4055 70.424 73.2175 70.424C71.4895 70.424 70.0855 71.378 70.0855 73.106C70.0855 74.816 71.1475 75.5 73.2535 75.95C74.9095 76.31 75.4675 76.562 75.4675 77.552C75.4675 78.614 74.4235 78.956 73.3435 78.956C72.2995 78.956 71.2555 78.614 70.4455 77.966L69.7975 79.01C70.7875 79.784 72.0295 80.162 73.3435 80.162ZM80.9022 74.114C81.6222 74.114 82.1262 73.628 82.1262 72.836C82.1262 72.098 81.6402 71.612 80.9022 71.612C80.1642 71.612 79.6782 72.098 79.6782 72.836C79.6782 73.628 80.1642 74.114 80.9022 74.114ZM80.9022 80.126C81.6222 80.126 82.1262 79.658 82.1262 78.848C82.1262 78.11 81.6402 77.624 80.9022 77.624C80.1642 77.624 79.6782 78.11 79.6782 78.848C79.6782 79.658 80.1642 80.126 80.9022 80.126ZM84.913 83.132H86.245L91.987 67.472H90.673L84.913 83.132ZM92.1024 83.132H93.4344L99.1764 67.472H97.8624L92.1024 83.132ZM104.216 79.01C103.082 79.01 102.434 78.398 102.434 77.354C102.434 76.292 103.136 75.842 104.108 75.842H106.502V77.912C105.944 78.542 105.134 79.01 104.216 79.01ZM109.184 80V78.812C108.374 79.064 107.834 78.758 107.834 77.84V73.394C107.834 71.558 106.556 70.424 104.72 70.424C103.082 70.424 101.966 71.126 101.372 72.53L102.488 73.124C102.956 71.972 103.55 71.594 104.594 71.594C105.89 71.594 106.502 72.332 106.502 73.61V74.726H104.072C102.254 74.726 101.102 75.788 101.102 77.48C101.102 79.208 102.362 80.162 103.91 80.162C105.08 80.162 106.178 79.568 106.916 78.722C107.06 79.73 108.068 80.234 109.184 80ZM114.859 78.956C113.959 78.938 113.311 78.74 112.699 78.29V73.232C113.293 72.242 114.193 71.72 115.057 71.72C116.335 71.72 117.307 72.458 117.307 75.194C117.307 77.948 116.227 78.938 114.859 78.956ZM115.039 80.162C116.947 80.162 118.675 78.704 118.675 75.194C118.675 71.9 117.271 70.424 115.453 70.424C114.175 70.424 113.239 71.216 112.663 72.062V70.604H111.313V83.132H112.699V79.55C113.275 79.928 114.031 80.162 115.039 80.162ZM124.949 78.956C124.049 78.938 123.401 78.74 122.789 78.29V73.232C123.383 72.242 124.283 71.72 125.147 71.72C126.425 71.72 127.397 72.458 127.397 75.194C127.397 77.948 126.317 78.938 124.949 78.956ZM125.129 80.162C127.037 80.162 128.765 78.704 128.765 75.194C128.765 71.9 127.361 70.424 125.543 70.424C124.265 70.424 123.329 71.216 122.753 72.062V70.604H121.403V83.132H122.789V79.55C123.365 79.928 124.121 80.162 125.129 80.162ZM131.295 75.104H137.883V73.934H131.295V75.104ZM141.401 83.222C142.679 83.222 143.669 82.538 144.281 80.702L147.719 70.604H146.315L143.921 78.38L141.473 70.604H140.033L143.237 80.162C142.931 81.26 142.517 82.034 141.473 82.034C141.167 82.034 140.699 81.98 140.321 81.872L140.105 83.078C140.537 83.186 140.987 83.222 141.401 83.222ZM153.05 80.162C155.282 80.162 156.812 78.632 156.812 75.338C156.812 72.026 155.264 70.424 153.068 70.424C150.8 70.424 149.306 72.026 149.306 75.32C149.306 78.632 150.8 80.162 153.05 80.162ZM153.05 78.956C151.52 78.956 150.692 77.912 150.692 75.32C150.692 72.782 151.52 71.648 153.05 71.648C154.58 71.648 155.408 72.782 155.408 75.338C155.408 77.912 154.58 78.956 153.05 78.956ZM165.236 70.604V77.156C164.642 78.2 163.742 78.884 162.662 78.884C161.564 78.884 160.844 78.182 160.844 76.742V70.604H159.476V77.048C159.476 78.938 160.574 80.162 162.266 80.162C163.58 80.162 164.462 79.568 165.236 78.362V80H166.604V70.604H165.236ZM169.668 75.104H176.256V73.934H169.668V75.104ZM186.236 80H187.604L189.998 70.604H188.72L186.938 78.38L184.796 71.324H183.644L181.556 78.344L179.81 70.604H178.46L180.854 80H182.222L184.202 73.232L186.236 80ZM194.744 79.01C193.61 79.01 192.962 78.398 192.962 77.354C192.962 76.292 193.664 75.842 194.636 75.842H197.03V77.912C196.472 78.542 195.662 79.01 194.744 79.01ZM199.712 80V78.812C198.902 79.064 198.362 78.758 198.362 77.84V73.394C198.362 71.558 197.084 70.424 195.248 70.424C193.61 70.424 192.494 71.126 191.9 72.53L193.016 73.124C193.484 71.972 194.078 71.594 195.122 71.594C196.418 71.594 197.03 72.332 197.03 73.61V74.726H194.6C192.782 74.726 191.63 75.788 191.63 77.48C191.63 79.208 192.89 80.162 194.438 80.162C195.608 80.162 196.706 79.568 197.444 78.722C197.588 79.73 198.596 80.234 199.712 80ZM203.227 80V73.448C203.821 72.386 204.721 71.72 205.783 71.72C206.899 71.72 207.619 72.422 207.619 73.862V80H208.987V73.538C208.987 71.666 207.889 70.424 206.197 70.424C204.901 70.424 204.001 71.036 203.227 72.242V70.604H201.859V80H203.227ZM215.687 80.144C216.299 80.144 216.947 80.036 217.541 79.784L217.253 78.614C216.749 78.83 216.209 78.92 215.813 78.92C214.931 78.92 214.337 78.344 214.337 77.048V71.81H217.415V70.604H214.337V68.012H212.969V70.604H211.079V71.81H212.969V77.012C212.969 79.082 213.941 80.144 215.687 80.144ZM221.281 80.126C222.019 80.126 222.523 79.64 222.523 78.848C222.523 78.11 222.037 77.624 221.281 77.624C220.543 77.624 220.075 78.11 220.075 78.848C220.075 79.64 220.543 80.126 221.281 80.126ZM229.094 80.162C230.75 80.162 231.974 79.334 232.514 77.57L231.236 77.138C230.858 78.542 230.138 78.956 229.076 78.956C227.528 78.956 226.7 77.912 226.7 75.302C226.7 72.674 227.546 71.648 229.076 71.648C230.138 71.648 230.858 72.062 231.236 73.448L232.514 73.034C231.974 71.252 230.768 70.424 229.112 70.424C226.808 70.424 225.314 72.026 225.314 75.302C225.314 78.632 226.808 80.162 229.094 80.162ZM238.339 80.162C240.571 80.162 242.101 78.632 242.101 75.338C242.101 72.026 240.553 70.424 238.357 70.424C236.089 70.424 234.595 72.026 234.595 75.32C234.595 78.632 236.089 80.162 238.339 80.162ZM238.339 78.956C236.809 78.956 235.981 77.912 235.981 75.32C235.981 72.782 236.809 71.648 238.339 71.648C239.869 71.648 240.697 72.782 240.697 75.338C240.697 77.912 239.869 78.956 238.339 78.956ZM246.223 73.088C246.871 72.206 247.681 71.72 248.725 71.72C249.589 71.72 250.147 72.296 250.147 73.502V80H251.515V73.088C252.163 72.224 252.991 71.72 254.035 71.72C254.881 71.72 255.439 72.296 255.439 73.502V80H256.807V73.196C256.807 71.504 255.871 70.424 254.431 70.424C253.333 70.424 252.343 70.838 251.353 72.08C251.029 71.054 250.219 70.424 249.121 70.424C248.023 70.424 247.051 70.838 246.223 71.882V70.604H244.837V80H246.223V73.088ZM259.288 83.132H260.62L266.362 67.472H265.048L259.288 83.132ZM271.402 79.01C270.268 79.01 269.62 78.398 269.62 77.354C269.62 76.292 270.322 75.842 271.294 75.842H273.688V77.912C273.13 78.542 272.32 79.01 271.402 79.01ZM276.37 80V78.812C275.56 79.064 275.02 78.758 275.02 77.84V73.394C275.02 71.558 273.742 70.424 271.906 70.424C270.268 70.424 269.152 71.126 268.558 72.53L269.674 73.124C270.142 71.972 270.736 71.594 271.78 71.594C273.076 71.594 273.688 72.332 273.688 73.61V74.726H271.258C269.44 74.726 268.288 75.788 268.288 77.48C268.288 79.208 269.548 80.162 271.096 80.162C272.266 80.162 273.364 79.568 274.102 78.722C274.246 79.73 275.254 80.234 276.37 80ZM282.045 78.956C281.145 78.938 280.497 78.74 279.885 78.29V73.232C280.479 72.242 281.379 71.72 282.243 71.72C283.521 71.72 284.493 72.458 284.493 75.194C284.493 77.948 283.413 78.938 282.045 78.956ZM282.225 80.162C284.133 80.162 285.861 78.704 285.861 75.194C285.861 71.9 284.457 70.424 282.639 70.424C281.361 70.424 280.425 71.216 279.849 72.062V70.604H278.499V83.132H279.885V79.55C280.461 79.928 281.217 80.162 282.225 80.162ZM289.291 68.84C289.849 68.84 290.245 68.552 290.245 67.94C290.245 67.292 289.867 66.986 289.291 66.986C288.697 66.986 288.319 67.292 288.319 67.922C288.319 68.552 288.697 68.84 289.291 68.84ZM288.607 80H289.975V70.604H288.607V80ZM292.563 83.132H293.895L299.637 67.472H298.323L292.563 83.132ZM305.014 71.648C305.842 71.666 306.544 71.864 307.156 72.296V77.354C306.562 78.344 305.68 78.884 304.798 78.884C303.538 78.884 302.566 78.128 302.566 75.41C302.566 72.638 303.646 71.666 305.014 71.648ZM304.816 70.424C302.908 70.424 301.198 71.882 301.198 75.41C301.198 78.704 302.584 80.162 304.402 80.162C305.68 80.162 306.616 79.388 307.192 78.542V80H308.524V67.112H307.156V71.054C306.526 70.676 305.77 70.424 304.816 70.424ZM314.222 79.01C313.088 79.01 312.44 78.398 312.44 77.354C312.44 76.292 313.142 75.842 314.114 75.842H316.508V77.912C315.95 78.542 315.14 79.01 314.222 79.01ZM319.19 80V78.812C318.38 79.064 317.84 78.758 317.84 77.84V73.394C317.84 71.558 316.562 70.424 314.726 70.424C313.088 70.424 311.972 71.126 311.378 72.53L312.494 73.124C312.962 71.972 313.556 71.594 314.6 71.594C315.896 71.594 316.508 72.332 316.508 73.61V74.726H314.078C312.26 74.726 311.108 75.788 311.108 77.48C311.108 79.208 312.368 80.162 313.916 80.162C315.086 80.162 316.184 79.568 316.922 78.722C317.066 79.73 318.074 80.234 319.19 80ZM324.759 80.144C325.371 80.144 326.019 80.036 326.613 79.784L326.325 78.614C325.821 78.83 325.281 78.92 324.885 78.92C324.003 78.92 323.409 78.344 323.409 77.048V71.81H326.487V70.604H323.409V68.012H322.041V70.604H320.151V71.81H322.041V77.012C322.041 79.082 323.013 80.144 324.759 80.144ZM331.361 79.01C330.227 79.01 329.579 78.398 329.579 77.354C329.579 76.292 330.281 75.842 331.253 75.842H333.647V77.912C333.089 78.542 332.279 79.01 331.361 79.01ZM336.329 80V78.812C335.519 79.064 334.979 78.758 334.979 77.84V73.394C334.979 71.558 333.701 70.424 331.865 70.424C330.227 70.424 329.111 71.126 328.517 72.53L329.633 73.124C330.101 71.972 330.695 71.594 331.739 71.594C333.035 71.594 333.647 72.332 333.647 73.61V74.726H331.217C329.399 74.726 328.247 75.788 328.247 77.48C328.247 79.208 329.507 80.162 331.055 80.162C332.225 80.162 333.323 79.568 334.061 78.722C334.205 79.73 335.213 80.234 336.329 80ZM342.814 80V75.302L346.918 67.472H345.424L342.184 73.988L338.872 67.472H337.324L341.446 75.302V80H342.814ZM351.208 80.162C353.44 80.162 354.97 78.632 354.97 75.338C354.97 72.026 353.422 70.424 351.226 70.424C348.958 70.424 347.464 72.026 347.464 75.32C347.464 78.632 348.958 80.162 351.208 80.162ZM351.208 78.956C349.678 78.956 348.85 77.912 348.85 75.32C348.85 72.782 349.678 71.648 351.208 71.648C352.738 71.648 353.566 72.782 353.566 75.338C353.566 77.912 352.738 78.956 351.208 78.956ZM363.394 70.604V77.156C362.8 78.2 361.9 78.884 360.82 78.884C359.722 78.884 359.002 78.182 359.002 76.742V70.604H357.634V77.048C357.634 78.938 358.732 80.162 360.424 80.162C361.738 80.162 362.62 79.568 363.394 78.362V80H364.762V70.604H363.394ZM376.304 80H377.69L380.444 67.472H379.13L376.988 78.092L374.342 68.696H373.136L370.58 78.128L368.438 67.472H367.052L369.806 80H371.192L373.73 70.676L376.304 80ZM384.605 79.01C383.471 79.01 382.823 78.398 382.823 77.354C382.823 76.292 383.525 75.842 384.497 75.842H386.891V77.912C386.333 78.542 385.523 79.01 384.605 79.01ZM389.573 80V78.812C388.763 79.064 388.223 78.758 388.223 77.84V73.394C388.223 71.558 386.945 70.424 385.109 70.424C383.471 70.424 382.355 71.126 381.761 72.53L382.877 73.124C383.345 71.972 383.939 71.594 384.983 71.594C386.279 71.594 386.891 72.332 386.891 73.61V74.726H384.461C382.643 74.726 381.491 75.788 381.491 77.48C381.491 79.208 382.751 80.162 384.299 80.162C385.469 80.162 386.567 79.568 387.305 78.722C387.449 79.73 388.457 80.234 389.573 80ZM393.088 80V73.448C393.682 72.386 394.582 71.72 395.644 71.72C396.76 71.72 397.48 72.422 397.48 73.862V80H398.848V73.538C398.848 71.666 397.75 70.424 396.058 70.424C394.762 70.424 393.862 71.036 393.088 72.242V70.604H391.72V80H393.088ZM405.548 80.144C406.16 80.144 406.808 80.036 407.402 79.784L407.114 78.614C406.61 78.83 406.07 78.92 405.674 78.92C404.792 78.92 404.198 78.344 404.198 77.048V71.81H407.276V70.604H404.198V68.012H402.83V70.604H400.94V71.81H402.83V77.012C402.83 79.082 403.802 80.144 405.548 80.144ZM412.762 76.328L412.816 74.672C415.318 74.276 416.938 73.16 416.938 70.964C416.938 68.696 415.264 67.31 412.762 67.31C410.908 67.31 409.54 68.048 408.604 69.65L409.612 70.424C410.332 69.164 411.34 68.516 412.78 68.516C414.562 68.516 415.57 69.488 415.57 70.874C415.57 72.296 414.778 73.34 411.61 73.754L411.664 76.328H412.762ZM412.24 80.144C412.996 80.144 413.338 79.64 413.338 78.938C413.338 78.254 412.996 77.75 412.24 77.75C411.484 77.75 411.142 78.254 411.142 78.938C411.142 79.64 411.484 80.144 412.24 80.144ZM421.853 79.01C420.719 79.01 420.071 78.398 420.071 77.354C420.071 76.292 420.773 75.842 421.745 75.842H424.139V77.912C423.581 78.542 422.771 79.01 421.853 79.01ZM426.821 80V78.812C426.011 79.064 425.471 78.758 425.471 77.84V73.394C425.471 71.558 424.193 70.424 422.357 70.424C420.719 70.424 419.603 71.126 419.009 72.53L420.125 73.124C420.593 71.972 421.187 71.594 422.231 71.594C423.527 71.594 424.139 72.332 424.139 73.61V74.726H421.709C419.891 74.726 418.739 75.788 418.739 77.48C418.739 79.208 419.999 80.162 421.547 80.162C422.717 80.162 423.815 79.568 424.553 78.722C424.697 79.73 425.705 80.234 426.821 80ZM432.496 78.956C431.596 78.938 430.948 78.74 430.336 78.29V73.232C430.93 72.242 431.83 71.72 432.694 71.72C433.972 71.72 434.944 72.458 434.944 75.194C434.944 77.948 433.864 78.938 432.496 78.956ZM432.676 80.162C434.584 80.162 436.312 78.704 436.312 75.194C436.312 71.9 434.908 70.424 433.09 70.424C431.812 70.424 430.876 71.216 430.3 72.062V70.604H428.95V83.132H430.336V79.55C430.912 79.928 431.668 80.162 432.676 80.162ZM439.742 68.84C440.3 68.84 440.696 68.552 440.696 67.94C440.696 67.292 440.318 66.986 439.742 66.986C439.148 66.986 438.77 67.292 438.77 67.922C438.77 68.552 439.148 68.84 439.742 68.84ZM439.058 80H440.426V70.604H439.058V80ZM450.593 80H452.195L447.803 72.494L452.249 67.472H450.719L445.067 73.862V67.472H443.699V80H445.067V75.608L446.885 73.538L450.593 80ZM457.259 71.594C458.501 71.594 459.455 72.368 459.473 74.456H454.811C454.973 72.458 455.801 71.594 457.259 71.594ZM460.697 78.686L459.815 77.822C459.221 78.632 458.447 78.956 457.493 78.956C455.783 78.956 454.865 77.84 454.793 75.59H460.859V74.654C460.859 71.9 459.275 70.424 457.277 70.424C454.919 70.424 453.407 72.008 453.407 75.266C453.407 78.434 454.973 80.162 457.493 80.162C458.735 80.162 460.031 79.694 460.697 78.686ZM463.994 83.222C465.272 83.222 466.262 82.538 466.874 80.702L470.312 70.604H468.908L466.514 78.38L464.066 70.604H462.626L465.83 80.162C465.524 81.26 465.11 82.034 464.066 82.034C463.76 82.034 463.292 81.98 462.914 81.872L462.698 83.078C463.13 83.186 463.58 83.222 463.994 83.222ZM472.363 72.746H480.787V71.576H472.363V72.746ZM472.363 77.462H480.787V76.292H472.363V77.462ZM484.441 80H492.217V78.794H489.157V67.472H487.825C487.537 69.362 486.079 70.586 484.153 70.64L484.297 71.972C485.791 71.936 487.303 71.018 487.789 69.812V78.794H484.441V80ZM495.223 80H503.233V78.794H496.591V77.984C496.591 76.508 497.437 75.698 499.723 74.528C502.063 73.34 503.089 72.152 503.089 70.622C503.089 68.642 501.523 67.31 499.309 67.31C496.897 67.31 495.493 68.48 495.187 71.054L496.555 71.216C496.879 69.164 497.725 68.516 499.327 68.516C500.749 68.516 501.703 69.38 501.703 70.622C501.703 71.576 501.415 72.224 499.039 73.448C496.771 74.6 495.223 75.77 495.223 77.984V80ZM510.45 80.162C512.97 80.162 514.572 78.866 514.572 76.382C514.572 74.834 513.636 73.466 511.854 73.304C513.33 73.196 514.266 72.188 514.266 70.694C514.266 68.426 512.502 67.31 510.342 67.31C508.074 67.31 506.832 68.282 506.346 70.424L507.714 70.766C508.074 69.038 508.704 68.48 510.342 68.48C511.818 68.48 512.898 69.146 512.898 70.694C512.898 72.17 512.25 72.746 510.378 72.746H508.596V73.952H510.378C512.502 73.952 513.168 74.636 513.168 76.4C513.168 78.218 512.142 78.992 510.45 78.992C508.83 78.992 507.894 78.506 507.462 76.4L506.04 76.796C506.544 79.244 508.092 80.162 510.45 80.162ZM526.344 76.688V75.5H524.202V67.472H522.384L517.146 75.5V76.688H522.834V80H524.202V76.688H526.344ZM518.496 75.5L522.834 68.822V75.5H518.496ZM531.545 70.532C531.545 69.452 532.193 68.498 533.327 68.498C534.191 68.498 534.803 68.93 534.803 69.866C534.803 71.126 533.507 72.062 532.013 72.692C531.707 71.954 531.545 71.216 531.545 70.532ZM532.391 78.974C530.735 78.974 529.835 78.182 529.835 76.67C529.835 75.518 530.465 74.69 531.401 74.114C532.229 75.428 533.417 76.742 534.893 77.858C534.137 78.632 533.291 78.974 532.391 78.974ZM538.727 80L539.159 78.848C538.241 78.488 537.395 78.056 536.621 77.588C537.287 76.598 537.845 75.356 538.313 73.862L537.161 73.52C536.711 74.96 536.189 76.094 535.631 76.94C534.263 75.932 533.183 74.762 532.463 73.574C534.263 72.728 536.045 71.648 536.045 69.722C536.045 68.12 534.839 67.31 533.327 67.31C531.527 67.31 530.231 68.696 530.231 70.532C530.231 71.36 530.465 72.26 530.897 73.178C529.565 73.916 528.485 74.996 528.485 76.67C528.485 79.082 530.015 80.162 532.391 80.162C533.723 80.162 534.893 79.604 535.865 78.542C536.747 79.1 537.719 79.604 538.727 80ZM541.362 80H542.748V67.112H541.362V80ZM548.451 79.01C547.317 79.01 546.669 78.398 546.669 77.354C546.669 76.292 547.371 75.842 548.343 75.842H550.737V77.912C550.179 78.542 549.369 79.01 548.451 79.01ZM553.419 80V78.812C552.609 79.064 552.069 78.758 552.069 77.84V73.394C552.069 71.558 550.791 70.424 548.955 70.424C547.317 70.424 546.201 71.126 545.607 72.53L546.723 73.124C547.191 71.972 547.785 71.594 548.829 71.594C550.125 71.594 550.737 72.332 550.737 73.61V74.726H548.307C546.489 74.726 545.337 75.788 545.337 77.48C545.337 79.208 546.597 80.162 548.145 80.162C549.315 80.162 550.413 79.568 551.151 78.722C551.295 79.73 552.303 80.234 553.419 80ZM556.934 80V73.448C557.528 72.386 558.428 71.72 559.49 71.72C560.606 71.72 561.326 72.422 561.326 73.862V80H562.694V73.538C562.694 71.666 561.596 70.424 559.904 70.424C558.608 70.424 557.708 71.036 556.934 72.242V70.604H555.566V80H556.934ZM569.178 75.266C568.116 75.266 567.252 74.744 567.252 73.448C567.252 72.17 568.116 71.666 569.178 71.666C570.258 71.666 571.122 72.17 571.122 73.448C571.122 74.762 570.258 75.266 569.178 75.266ZM573.678 80.252C573.678 78.848 572.652 78.092 571.032 78.092H568.278C567.234 78.092 566.784 77.768 566.784 77.138C566.784 76.706 566.982 76.328 567.594 75.986C568.062 76.22 568.584 76.346 569.142 76.346C571.068 76.346 572.382 75.104 572.382 73.412C572.382 72.656 572.112 71.972 571.626 71.468C572.094 71.576 572.67 71.648 573.408 71.702V70.604H569.952C569.7 70.55 569.43 70.532 569.16 70.532C567.342 70.532 565.992 71.738 565.992 73.412C565.992 74.276 566.352 75.032 566.946 75.554C566.136 75.878 565.632 76.616 565.632 77.498C565.632 78.236 566.028 78.83 566.82 79.136C565.83 79.622 565.308 80.288 565.308 81.152C565.308 82.358 566.442 83.348 569.07 83.348C571.842 83.348 573.678 82.124 573.678 80.252ZM569.286 82.214C567.18 82.214 566.586 81.602 566.586 80.882C566.586 80.324 566.928 79.838 567.72 79.352C567.882 79.37 568.062 79.37 568.242 79.37H571.032C571.878 79.37 572.418 79.676 572.418 80.414C572.418 81.53 571.212 82.214 569.286 82.214ZM575.934 72.746H584.358V71.576H575.934V72.746ZM575.934 77.462H584.358V76.292H575.934V77.462ZM587.417 80H591.395C594.293 80 596.489 78.272 596.489 73.664C596.489 69.218 594.311 67.472 591.413 67.472H587.417V80ZM588.803 78.794V68.66H591.359C593.573 68.66 595.103 69.938 595.103 73.664C595.103 77.606 593.573 78.794 591.359 78.794H588.803ZM599.265 80H606.897V78.812H600.651V73.88H606.195V72.656H600.651V68.66H606.897V67.472H599.265V80Z" fill="black"/>
<a href="https://app-you-want.com/api/v1/dataYouWant">
<rect fill="black" fill-opacity="0" y="0.191" width="375.086" height="21.618"/>
</a>
</g>
<defs>
<clipPath id="clip0">
<rect width="639" height="140" fill="white"/>
</clipPath>
</defs>
</svg>
